<svg width="328" height="87" viewBox="0 0 328 87" fill="none" xmlns="http://www.w3.org/2000/svg">
<g clip-path="url(#clip0_659_901)">
<path d="M117.016 63.8488V0.454674H131.492V24.1804H157.237V0.454674H171.621V63.8488H157.237V36.498H131.492V63.8488H117.016Z" fill="#5C5C5C"/>
<path d="M199.105 64.9359C194.89 64.9359 191.01 64.043 187.468 62.2657C183.926 60.4842 181.087 57.8429 178.946 54.3419C176.81 50.8409 175.739 46.5215 175.739 41.392C175.739 36.2624 176.776 31.943 178.854 28.442C180.928 24.941 183.738 22.2997 187.284 20.5182C190.826 18.7367 194.765 17.8481 199.101 17.8481C203.621 17.8481 207.606 18.7698 211.055 20.6092C214.505 22.4527 217.223 25.0774 219.209 28.4875C221.191 31.8975 222.186 35.9607 222.186 40.6686C222.186 41.2721 222.169 41.921 222.14 42.6154C222.107 43.3099 222.031 44.0208 221.91 44.7442H189.847C190.031 46.9183 190.562 48.6378 191.449 49.9068C192.335 51.1757 193.435 52.0975 194.748 52.6679C196.061 53.2424 197.357 53.5277 198.641 53.5277C200.409 53.5277 201.906 53.1639 203.131 52.4406C204.352 51.7172 205.297 50.6012 205.971 49.0884H221.086C220.413 51.928 219.071 54.5527 217.055 56.9667C215.04 59.3806 212.523 61.315 209.496 62.7617C206.477 64.2084 203.01 64.9359 199.105 64.9359ZM189.851 36.9527H207.622C207.622 34.4768 206.799 32.5465 205.147 31.1576C203.499 29.7688 201.421 29.0744 198.917 29.0744C196.475 29.0744 194.459 29.7853 192.87 31.2031C191.286 32.6209 190.278 34.5388 189.851 36.9527Z" fill="#5C5C5C"/>
<path d="M279.814 0.454674L257.368 24.5442L282.377 63.8488H265.614L247.843 34.5966L242.253 40.6645V63.8488H227.777V0.454674H242.253V21.9195L262.039 0.454674H279.814Z" fill="#5C5C5C"/>
<path d="M295.201 64.9359C292.575 64.9359 290.129 64.4068 287.871 63.3528C285.609 62.2987 283.795 60.757 282.419 58.7357C281.043 56.7145 280.357 54.251 280.357 51.3535C280.357 48.0343 281.244 45.3311 283.013 43.2479C284.781 41.1646 287.148 39.6394 290.113 38.6763C293.073 37.7132 296.326 37.2296 299.868 37.2296H310.129C310.129 35.6589 309.853 34.2701 309.305 33.0631C308.757 31.8562 307.929 30.9055 306.83 30.2111C305.73 29.5167 304.354 29.1695 302.707 29.1695C300.997 29.1695 299.437 29.5332 298.036 30.2566C296.631 30.9799 295.745 32.2199 295.381 33.9684H281.729C281.971 30.6492 283.105 27.7972 285.12 25.4122C287.135 23.0272 289.715 21.1713 292.86 19.8445C296.004 18.5177 299.379 17.8522 302.983 17.8522C307.198 17.8522 310.907 18.621 314.114 20.1628C317.321 21.7004 319.809 23.9076 321.582 26.7721C323.35 29.6407 324.237 33.0962 324.237 37.1428V48.6461C324.237 49.9729 324.433 51.0021 324.831 51.7255C325.228 52.4488 326.282 52.8126 327.992 52.8126V63.8612C325.061 63.8612 322.614 63.6793 320.662 63.3197C318.705 62.956 317.057 62.2781 315.715 61.2819C314.373 60.2858 313.152 58.8225 312.052 56.8881C310.037 59.5459 307.653 61.5506 304.906 62.9105C302.168 64.2538 298.927 64.9359 295.201 64.9359ZM300.152 54.2469C301.925 54.2469 303.556 53.8707 305.053 53.1143C306.55 52.3579 307.754 51.2873 308.67 49.8985C309.585 48.5097 310.045 46.939 310.045 45.1906V44.645H301.344C300.123 44.645 298.994 44.8103 297.953 45.1451C296.912 45.4758 296.088 45.9924 295.477 46.6827C294.867 47.3771 294.562 48.3278 294.562 49.5348C294.562 51.2873 295.143 52.5108 296.301 53.2011C297.463 53.9038 298.743 54.2469 300.152 54.2469Z" fill="#5C5C5C"/>
<path d="M275.545 84.8424C274.529 84.8424 273.642 84.6192 272.881 84.1686C272.12 83.7222 271.53 83.1022 271.104 82.321C270.677 81.5356 270.464 80.6345 270.464 79.6177C270.464 78.5596 270.677 77.642 271.104 76.8649C271.53 76.0878 272.128 75.4802 272.894 75.0462C273.659 74.6122 274.549 74.3931 275.566 74.3931C276.557 74.3931 277.418 74.6039 278.15 75.0255C278.881 75.4471 279.458 76.0258 279.877 76.7657C280.295 77.5014 280.508 78.3405 280.508 79.2788C280.508 79.4689 280.504 79.6343 280.5 79.7831C280.491 79.9319 280.474 80.0931 280.449 80.2667H272.785C272.827 80.7875 272.961 81.2546 273.19 81.6638C273.42 82.073 273.734 82.3912 274.135 82.6186C274.537 82.8459 274.993 82.9617 275.507 82.9617C276.063 82.9617 276.536 82.8418 276.92 82.5979C277.305 82.3582 277.606 82.0068 277.823 81.5522H280.244C280.056 82.1556 279.751 82.7054 279.341 83.2014C278.927 83.6974 278.405 84.0942 277.777 84.3959C277.15 84.6977 276.402 84.8424 275.545 84.8424ZM272.802 78.6712H278.15C278.137 77.9354 277.869 77.3526 277.355 76.9227C276.841 76.4929 276.222 76.2779 275.507 76.2779C274.855 76.2779 274.269 76.4722 273.747 76.8607C273.224 77.2493 272.91 77.8528 272.802 78.6712Z" fill="#333333"/>
<path d="M281.766 84.6026V74.6328H284.004L284.045 76.001C284.384 75.4802 284.852 75.0792 285.45 74.8064C286.048 74.5336 286.671 74.3931 287.319 74.3931C288.499 74.3931 289.456 74.761 290.188 75.4967C290.92 76.2325 291.287 77.3196 291.287 78.7538V84.6026H289.009V79.0349C289.009 78.1917 288.804 77.5262 288.398 77.0467C287.993 76.5673 287.395 76.3234 286.609 76.3234C285.822 76.3234 285.204 76.5797 284.748 77.0964C284.292 77.613 284.066 78.3116 284.066 79.1961V84.6026H281.766Z" fill="#333333"/>
<path d="M295.594 84.6026L291.793 74.6328H294.231L296.974 82.5111L299.717 74.6328H302.138L298.337 84.6026H295.594Z" fill="#333333"/>
<path d="M304.237 73.0415C303.819 73.0415 303.46 72.8927 303.158 72.5992C302.862 72.3057 302.711 71.9503 302.711 71.5328C302.711 71.1194 302.862 70.7681 303.158 70.4788C303.455 70.1894 303.815 70.0489 304.237 70.0489C304.66 70.0489 305.015 70.1936 305.316 70.4788C305.613 70.7681 305.763 71.1194 305.763 71.5328C305.763 71.9503 305.613 72.3057 305.316 72.5992C305.019 72.8927 304.655 73.0415 304.237 73.0415ZM303.079 84.6026V74.6328H305.395V84.6026H303.079Z" fill="#333333"/>
<path d="M312.086 84.8424C311.095 84.8424 310.208 84.6274 309.422 84.1975C308.636 83.7677 308.017 83.1642 307.561 82.3788C307.106 81.5935 306.88 80.6759 306.88 79.6136C306.88 78.5265 307.118 77.5965 307.591 76.8194C308.063 76.0423 308.703 75.443 309.502 75.0214C310.3 74.5998 311.191 74.389 312.165 74.389C313.156 74.389 314.047 74.5998 314.837 75.0214C315.627 75.443 316.259 76.0423 316.727 76.8194C317.195 77.5965 317.43 78.5265 317.43 79.6136C317.43 80.618 317.204 81.515 316.748 82.3086C316.292 83.0981 315.665 83.7181 314.858 84.1686C314.055 84.6192 313.127 84.8424 312.086 84.8424ZM312.107 82.8707C312.688 82.8707 313.202 82.726 313.641 82.4367C314.08 82.1474 314.431 81.7588 314.687 81.2628C314.946 80.7668 315.071 80.2047 315.071 79.5764C315.071 78.9192 314.942 78.3488 314.687 77.8693C314.427 77.3857 314.08 77.0137 313.641 76.7533C313.202 76.4929 312.696 76.3606 312.128 76.3606C311.53 76.3606 311.011 76.5011 310.572 76.7822C310.133 77.0633 309.794 77.4477 309.564 77.9396C309.334 78.4273 309.217 78.9894 309.217 79.6177C309.217 80.2997 309.351 80.8867 309.615 81.3744C309.878 81.8622 310.229 82.2342 310.672 82.4904C311.111 82.7467 311.588 82.8707 312.107 82.8707Z" fill="#333333"/>
<path d="M322.861 84.8424C322.088 84.8424 321.373 84.7059 320.716 84.429C320.06 84.1562 319.524 83.7635 319.11 83.2551C318.696 82.7467 318.462 82.1515 318.408 81.4654H320.724C320.804 81.9324 321.038 82.3127 321.427 82.602C321.812 82.8914 322.284 83.0361 322.84 83.0361C323.342 83.0361 323.76 82.9286 324.09 82.7136C324.421 82.4987 324.588 82.2052 324.588 81.8291C324.588 81.5067 324.471 81.2546 324.241 81.0768C324.011 80.8949 323.727 80.7544 323.388 80.6552C323.049 80.556 322.698 80.4651 322.33 80.3824C321.695 80.2336 321.101 80.0559 320.553 79.8409C320.005 79.626 319.558 79.3243 319.219 78.9357C318.88 78.5472 318.709 78.0388 318.709 77.4064C318.709 76.7739 318.885 76.2366 319.236 75.7861C319.587 75.3355 320.06 74.9924 320.649 74.7527C321.239 74.513 321.899 74.389 322.631 74.389C323.743 74.389 324.667 74.6659 325.408 75.2115C326.148 75.7571 326.557 76.5631 326.637 77.6213H324.442C324.387 77.1666 324.195 76.8153 323.86 76.5755C323.53 76.3358 323.099 76.2118 322.568 76.2118C322.108 76.2118 321.724 76.2986 321.419 76.4722C321.113 76.6458 320.963 76.9269 320.963 77.3154C320.963 77.5841 321.076 77.8032 321.297 77.9809C321.519 78.1586 321.807 78.2992 322.15 78.4108C322.497 78.5265 322.84 78.6216 323.179 78.7042C323.869 78.8654 324.488 79.0514 325.027 79.2664C325.571 79.4813 326.001 79.7831 326.319 80.1716C326.637 80.5601 326.804 81.0892 326.817 81.7588C326.817 82.4036 326.641 82.9534 326.29 83.4081C325.939 83.8627 325.462 84.2141 324.868 84.4621C324.279 84.7184 323.605 84.8424 322.861 84.8424Z" fill="#333333"/>
<path d="M92.3333 0H86.6424H61.7632V13.1236H91.0412V13.0492H92.3333C93.2992 13.0492 94.0811 12.2762 94.0811 11.3214V1.72777C94.0811 0.772948 93.2992 0 92.3333 0Z" fill="#333333"/>
<path d="M61.7631 28.5701L59.869 30.4508L58.0375 28.6404L56.2061 30.4508L54.3746 28.6404L52.5432 30.4508L50.7117 28.6404L48.8803 30.4508L47.0488 28.6404L45.2174 30.4508L43.386 28.6404L41.5545 30.4508L39.7231 28.6404L37.8916 30.4508L36.0602 28.6404L34.2287 30.4508L32.3304 28.5743L32.3346 28.5701H32.3304V14.3636H3.03564V82.6475C3.03564 85.049 5.00507 86.9959 7.43446 86.9959H31.4858V67.916C31.4858 66.4239 32.7193 65.2045 34.2287 65.2045H59.2668C60.7763 65.2045 62.0098 66.4239 62.0098 67.916V86.9959H86.6382C89.0675 86.9959 91.037 85.049 91.037 82.6475V14.3636H61.7589V28.5701H61.7631Z" fill="#333333"/>
<path d="M32.3137 0H7.43868H1.74782C0.781918 0 0 0.772948 0 1.72777V11.3255C0 12.2804 0.781918 13.0533 1.74782 13.0533H3.03986V13.1277H32.3179V0H32.3137Z" fill="#333333"/>
</g>
<defs>
<clipPath id="clip0_659_901">
<rect width="328" height="87" fill="white"/>
</clipPath>
</defs>
</svg>
