<svg width="32" height="33" viewBox="0 0 32 33" xmlns="http://www.w3.org/2000/svg">
<path d="M15.0531 16.2947L19.7731 11.5747C20.0214 11.3249 20.1608 10.9869 20.1608 10.6347C20.1608 10.2824 20.0214 9.94451 19.7731 9.69469C19.6491 9.56972 19.5017 9.47053 19.3392 9.40284C19.1767 9.33514 19.0024 9.30029 18.8264 9.30029C18.6504 9.30029 18.4761 9.33514 18.3137 9.40284C18.1512 9.47053 18.0037 9.56972 17.8798 9.69469L12.2264 15.348C12.1015 15.472 12.0023 15.6194 11.9346 15.7819C11.8669 15.9444 11.832 16.1187 11.832 16.2947C11.832 16.4707 11.8669 16.645 11.9346 16.8075C12.0023 16.9699 12.1015 17.1174 12.2264 17.2414L17.8798 22.9614C18.0043 23.0849 18.1521 23.1827 18.3146 23.2491C18.477 23.3154 18.651 23.349 18.8264 23.348C19.0019 23.349 19.1759 23.3154 19.3383 23.2491C19.5008 23.1827 19.6485 23.0849 19.7731 22.9614C20.0214 22.7115 20.1608 22.3736 20.1608 22.0214C20.1608 21.6691 20.0214 21.3312 19.7731 21.0814L15.0531 16.2947Z"/>
</svg>
