<svg width="32" height="32" viewBox="0 0 32 32" xmlns="http://www.w3.org/2000/svg">
<g id="Icons">
<path id="Vector" d="M22.6664 14.6666H12.5464L16.9464 10.28C17.1974 10.0289 17.3385 9.68836 17.3385 9.3333C17.3385 8.97823 17.1974 8.6377 16.9464 8.38663C16.6953 8.13556 16.3548 7.99451 15.9997 7.99451C15.6446 7.99451 15.3041 8.13556 15.053 8.38663L8.38637 15.0533C8.26498 15.1801 8.16982 15.3296 8.10637 15.4933C7.97301 15.8179 7.97301 16.182 8.10637 16.5066C8.16982 16.6703 8.26498 16.8198 8.38637 16.9466L15.053 23.6133C15.177 23.7383 15.3245 23.8375 15.4869 23.9052C15.6494 23.9728 15.8237 24.0077 15.9997 24.0077C16.1757 24.0077 16.35 23.9728 16.5125 23.9052C16.6749 23.8375 16.8224 23.7383 16.9464 23.6133C17.0713 23.4893 17.1705 23.3419 17.2382 23.1794C17.3059 23.0169 17.3408 22.8426 17.3408 22.6666C17.3408 22.4906 17.3059 22.3163 17.2382 22.1539C17.1705 21.9914 17.0713 21.8439 16.9464 21.72L12.5464 17.3333H22.6664C23.02 17.3333 23.3591 17.1928 23.6092 16.9428C23.8592 16.6927 23.9997 16.3536 23.9997 16C23.9997 15.6463 23.8592 15.3072 23.6092 15.0572C23.3591 14.8071 23.02 14.6666 22.6664 14.6666Z"/>
</g>
</svg>
