<svg width="24" height="25" viewBox="0 0 24 25" fill="none" xmlns="http://www.w3.org/2000/svg">
<g id="Icons">
<path id="Vector" d="M20.9 2.24829H3.1C2.80826 2.24829 2.52847 2.36418 2.32218 2.57047C2.11589 2.77676 2 3.05655 2 3.34829V21.1483C2 21.2927 2.02845 21.4358 2.08373 21.5692C2.13901 21.7027 2.22004 21.824 2.32218 21.9261C2.42433 22.0283 2.54559 22.1093 2.67905 22.1646C2.81251 22.2198 2.95555 22.2483 3.1 22.2483H12.68V14.4983H10.08V11.4983H12.68V9.24829C12.6261 8.72005 12.6885 8.18642 12.8627 7.68483C13.0369 7.18324 13.3188 6.72584 13.6885 6.3447C14.0582 5.96357 14.5068 5.66793 15.0028 5.47853C15.4989 5.28913 16.0304 5.21054 16.56 5.24829C17.3383 5.2435 18.1163 5.28357 18.89 5.36829V8.06829H17.3C16.04 8.06829 15.8 8.66829 15.8 9.53829V11.4683H18.8L18.41 14.4683H15.8V22.2483H20.9C21.0445 22.2483 21.1875 22.2198 21.321 22.1646C21.4544 22.1093 21.5757 22.0283 21.6778 21.9261C21.78 21.824 21.861 21.7027 21.9163 21.5692C21.9715 21.4358 22 21.2927 22 21.1483V3.34829C22 3.20384 21.9715 3.0608 21.9163 2.92734C21.861 2.79388 21.78 2.67262 21.6778 2.57047C21.5757 2.46833 21.4544 2.3873 21.321 2.33202C21.1875 2.27674 21.0445 2.24829 20.9 2.24829Z" fill="white"/>
</g>
</svg>
