<svg width="32" height="32" viewBox="0 0 32 32" xmlns="http://www.w3.org/2000/svg">
<g id="Type=info-circle, Size=32">
<path id="Vector" d="M16 14.6666C15.6464 14.6666 15.3073 14.8071 15.0572 15.0572C14.8072 15.3072 14.6667 15.6463 14.6667 16V21.3333C14.6667 21.6869 14.8072 22.0261 15.0572 22.2761C15.3073 22.5262 15.6464 22.6666 16 22.6666C16.3536 22.6666 16.6928 22.5262 16.9428 22.2761C17.1929 22.0261 17.3334 21.6869 17.3334 21.3333V16C17.3334 15.6463 17.1929 15.3072 16.9428 15.0572C16.6928 14.8071 16.3536 14.6666 16 14.6666ZM16.5067 9.43996C16.1821 9.3066 15.818 9.3066 15.4934 9.43996C15.3297 9.50342 15.1802 9.59857 15.0534 9.71996C14.9356 9.84956 14.8409 9.99838 14.7734 10.16C14.6987 10.3182 14.6622 10.4917 14.6667 10.6666C14.6657 10.8421 14.6993 11.0161 14.7657 11.1785C14.832 11.341 14.9298 11.4887 15.0534 11.6133C15.183 11.7311 15.3318 11.8258 15.4934 11.8933C15.6954 11.9763 15.9146 12.0084 16.132 11.9868C16.3493 11.9652 16.5579 11.8905 16.7396 11.7694C16.9213 11.6482 17.0705 11.4843 17.174 11.2921C17.2776 11.0998 17.3323 10.885 17.3334 10.6666C17.3284 10.3136 17.1903 9.97547 16.9467 9.71996C16.8199 9.59857 16.6704 9.50342 16.5067 9.43996ZM16 2.66663C13.3629 2.66663 10.7851 3.44861 8.59242 4.9137C6.39977 6.37878 4.6908 8.46116 3.68163 10.8975C2.67246 13.3339 2.40842 16.0148 2.92289 18.6012C3.43736 21.1876 4.70724 23.5634 6.57194 25.4281C8.43664 27.2928 10.8124 28.5626 13.3988 29.0771C15.9852 29.5916 18.6661 29.3275 21.1025 28.3184C23.5388 27.3092 25.6212 25.6002 27.0863 23.4076C28.5514 21.2149 29.3334 18.637 29.3334 16C29.3334 14.249 28.9885 12.5152 28.3184 10.8975C27.6484 9.27984 26.6662 7.80998 25.4281 6.57187C24.19 5.33375 22.7201 4.35163 21.1025 3.68157C19.4848 3.0115 17.751 2.66663 16 2.66663ZM16 26.6666C13.8904 26.6666 11.8281 26.041 10.0739 24.869C8.31982 23.6969 6.95265 22.031 6.14531 20.0819C5.33798 18.1328 5.12674 15.9881 5.53832 13.919C5.94989 11.8499 6.96579 9.94925 8.45755 8.45749C9.94931 6.96573 11.8499 5.94983 13.9191 5.53825C15.9882 5.12667 18.1329 5.33791 20.082 6.14524C22.0311 6.95258 23.697 8.31975 24.869 10.0739C26.0411 11.828 26.6667 13.8903 26.6667 16C26.6667 18.8289 25.5429 21.542 23.5425 23.5424C21.5421 25.5428 18.829 26.6666 16 26.6666Z"/>
</g>
</svg>
