<svg width="24" height="25" viewBox="0 0 24 25" fill="none" xmlns="http://www.w3.org/2000/svg">
<g id="Icons">
<path id="Vector" d="M17.34 5.70829C17.1027 5.70829 16.8707 5.77867 16.6733 5.91053C16.476 6.04239 16.3222 6.2298 16.2313 6.44907C16.1405 6.66834 16.1168 6.90962 16.1631 7.1424C16.2094 7.37518 16.3236 7.589 16.4915 7.75682C16.6593 7.92464 16.8731 8.03893 17.1059 8.08523C17.3387 8.13154 17.5799 8.10777 17.7992 8.01695C18.0185 7.92612 18.2059 7.77231 18.3378 7.57498C18.4696 7.37764 18.54 7.14563 18.54 6.90829C18.54 6.59003 18.4136 6.28481 18.1885 6.05976C17.9635 5.83472 17.6583 5.70829 17.34 5.70829ZM21.94 8.12829C21.9206 7.29859 21.7652 6.47769 21.48 5.69829C21.2257 5.03142 20.83 4.42757 20.32 3.92829C19.8248 3.41572 19.2196 3.02247 18.55 2.77829C17.7727 2.48445 16.9508 2.3255 16.12 2.30829C15.06 2.24829 14.72 2.24829 12 2.24829C9.28 2.24829 8.94 2.24829 7.88 2.30829C7.04915 2.3255 6.22734 2.48445 5.45 2.77829C4.78168 3.02494 4.17693 3.41785 3.68 3.92829C3.16743 4.42347 2.77418 5.02873 2.53 5.69829C2.23616 6.47563 2.07721 7.29744 2.06 8.12829C2 9.18829 2 9.52829 2 12.2483C2 14.9683 2 15.3083 2.06 16.3683C2.07721 17.1991 2.23616 18.0209 2.53 18.7983C2.77418 19.4678 3.16743 20.0731 3.68 20.5683C4.17693 21.0787 4.78168 21.4716 5.45 21.7183C6.22734 22.0121 7.04915 22.1711 7.88 22.1883C8.94 22.2483 9.28 22.2483 12 22.2483C14.72 22.2483 15.06 22.2483 16.12 22.1883C16.9508 22.1711 17.7727 22.0121 18.55 21.7183C19.2196 21.4741 19.8248 21.0809 20.32 20.5683C20.8322 20.0709 21.2283 19.4665 21.48 18.7983C21.7652 18.0189 21.9206 17.198 21.94 16.3683C21.94 15.3083 22 14.9683 22 12.2483C22 9.52829 22 9.18829 21.94 8.12829ZM20.14 16.2483C20.1327 16.8831 20.0178 17.512 19.8 18.1083C19.6403 18.5435 19.3839 18.9367 19.05 19.2583C18.7256 19.5888 18.3332 19.8447 17.9 20.0083C17.3037 20.226 16.6748 20.341 16.04 20.3483C15.04 20.3983 14.67 20.4083 12.04 20.4083C9.41 20.4083 9.04 20.4083 8.04 20.3483C7.38089 20.3606 6.72459 20.2591 6.1 20.0483C5.68578 19.8764 5.31136 19.6211 5 19.2983C4.66809 18.977 4.41484 18.5835 4.26 18.1483C4.01586 17.5434 3.88044 16.9002 3.86 16.2483C3.86 15.2483 3.8 14.8783 3.8 12.2483C3.8 9.61829 3.8 9.24829 3.86 8.24829C3.86448 7.59935 3.98295 6.95624 4.21 6.34829C4.38605 5.9262 4.65627 5.54995 5 5.24829C5.30381 4.90446 5.67929 4.63139 6.1 4.44829C6.70955 4.22833 7.352 4.11337 8 4.10829C9 4.10829 9.37 4.04829 12 4.04829C14.63 4.04829 15 4.04829 16 4.10829C16.6348 4.11557 17.2637 4.23054 17.86 4.44829C18.3144 4.61694 18.7223 4.89114 19.05 5.24829C19.3777 5.55547 19.6338 5.93102 19.8 6.34829C20.0223 6.95722 20.1373 7.60007 20.14 8.24829C20.19 9.24829 20.2 9.61829 20.2 12.2483C20.2 14.8783 20.19 15.2483 20.14 16.2483ZM12 7.11829C10.9858 7.12027 9.99496 7.42282 9.15265 7.98771C8.31035 8.5526 7.65438 9.35449 7.26763 10.292C6.88089 11.2296 6.78072 12.2608 6.97979 13.2552C7.17886 14.2497 7.66824 15.1628 8.38608 15.8793C9.10392 16.5957 10.018 17.0833 11.0129 17.2804C12.0077 17.4776 13.0387 17.3754 13.9755 16.9868C14.9123 16.5983 15.7129 15.9407 16.2761 15.0973C16.8394 14.2539 17.14 13.2625 17.14 12.2483C17.1413 11.5734 17.0092 10.9049 16.7512 10.2812C16.4933 9.6576 16.1146 9.0911 15.6369 8.61434C15.1592 8.13758 14.5919 7.75997 13.9678 7.50322C13.3436 7.24647 12.6749 7.11565 12 7.11829ZM12 15.5783C11.3414 15.5783 10.6976 15.383 10.15 15.0171C9.60234 14.6512 9.17552 14.1311 8.92348 13.5226C8.67144 12.9141 8.6055 12.2446 8.73398 11.5986C8.86247 10.9527 9.17963 10.3593 9.64533 9.89363C10.111 9.42792 10.7044 9.11076 11.3503 8.98228C11.9963 8.85379 12.6659 8.91973 13.2743 9.17177C13.8828 9.42381 14.4029 9.85063 14.7688 10.3982C15.1347 10.9459 15.33 11.5897 15.33 12.2483C15.33 12.6856 15.2439 13.1186 15.0765 13.5226C14.9092 13.9266 14.6639 14.2937 14.3547 14.603C14.0454 14.9122 13.6784 15.1575 13.2743 15.3248C12.8703 15.4922 12.4373 15.5783 12 15.5783Z" fill="white"/>
</g>
</svg>
