<svg width="128" height="34" viewBox="0 0 128 34" fill="none" xmlns="http://www.w3.org/2000/svg">
<g id="Logo" clip-path="url(#clip0_5660_39)">
<g id="Group">
<path id="Vector" d="M45.6647 24.9524V0.177734H51.3139V9.44987H61.3606V0.177734H66.9739V24.9524H61.3606V14.2636H51.3139V24.9524H45.6647Z" fill="#5C5C5C"/>
<path id="Vector_2" d="M77.6994 25.3772C76.0546 25.3772 74.5403 25.0283 73.1582 24.3337C71.7761 23.6375 70.6682 22.6053 69.8327 21.2371C68.9989 19.8689 68.5812 18.1808 68.5812 16.1762C68.5812 14.1715 68.9858 12.4835 69.7968 11.1153C70.6062 9.74705 71.7027 8.71484 73.0864 8.01862C74.4685 7.3224 76.0057 6.9751 77.6978 6.9751C79.4617 6.9751 81.0168 7.33532 82.363 8.05416C83.7092 8.7746 84.7698 9.80035 85.5449 11.133C86.3184 12.4657 86.7067 14.0536 86.7067 15.8935C86.7067 16.1293 86.7002 16.3829 86.6888 16.6543C86.6757 16.9257 86.6464 17.2035 86.599 17.4862H74.0867C74.1585 18.3359 74.3657 19.0079 74.7117 19.5038C75.0576 19.9997 75.4868 20.3599 75.9991 20.5829C76.5115 20.8074 77.0173 20.9188 77.5183 20.9188C78.2085 20.9188 78.7927 20.7767 79.2708 20.494C79.7473 20.2113 80.1161 19.7752 80.3788 19.184H86.2776C86.0149 20.2937 85.4911 21.3195 84.7046 22.2628C83.918 23.2062 82.9357 23.9622 81.7543 24.5275C80.5762 25.0929 79.2235 25.3772 77.6994 25.3772ZM74.0883 14.4413H81.0233C81.0233 13.4737 80.7019 12.7193 80.0573 12.1765C79.4144 11.6338 78.6034 11.3624 77.626 11.3624C76.673 11.3624 75.8865 11.6402 75.2665 12.1943C74.648 12.7484 74.2548 13.4979 74.0883 14.4413Z" fill="#5C5C5C"/>
<path id="Vector_3" d="M109.196 0.177734L100.436 9.59203L110.196 24.9524H103.654L96.7192 13.5206L94.5375 15.8919V24.9524H88.8884V0.177734H94.5375V8.56627L102.259 0.177734H109.196Z" fill="#5C5C5C"/>
<path id="Vector_4" d="M115.2 25.3773C114.176 25.3773 113.221 25.1706 112.34 24.7586C111.457 24.3467 110.749 23.7442 110.212 22.9543C109.675 22.1644 109.408 21.2016 109.408 20.0693C109.408 18.7721 109.754 17.7157 110.444 16.9015C111.134 16.0874 112.058 15.4913 113.215 15.115C114.37 14.7386 115.639 14.5496 117.022 14.5496H121.026C121.026 13.9358 120.918 13.393 120.704 12.9213C120.491 12.4496 120.168 12.0781 119.738 11.8067C119.309 11.5353 118.772 11.3996 118.129 11.3996C117.462 11.3996 116.853 11.5418 116.307 11.8245C115.759 12.1072 115.413 12.5918 115.271 13.2751H109.943C110.038 11.9779 110.48 10.8634 111.266 9.93129C112.053 8.99923 113.06 8.27394 114.287 7.75541C115.514 7.23688 116.831 6.97681 118.237 6.97681C119.882 6.97681 121.329 7.27726 122.581 7.87979C123.832 8.4807 124.803 9.3433 125.495 10.4627C126.185 11.5838 126.531 12.9342 126.531 14.5157V19.0112C126.531 19.5297 126.608 19.932 126.763 20.2146C126.918 20.4973 127.329 20.6395 127.997 20.6395V24.9573C126.853 24.9573 125.898 24.8863 125.136 24.7457C124.373 24.6036 123.73 24.3386 123.206 23.9493C122.682 23.56 122.206 22.9882 121.776 22.2322C120.99 23.2709 120.06 24.0543 118.988 24.5858C117.919 25.1108 116.654 25.3773 115.2 25.3773ZM117.132 21.2C117.824 21.2 118.461 21.053 119.045 20.7574C119.629 20.4618 120.099 20.0434 120.456 19.5007C120.814 18.9579 120.993 18.3441 120.993 17.6608V17.4475H117.598C117.121 17.4475 116.68 17.5122 116.274 17.643C115.868 17.7722 115.546 17.9741 115.308 18.2439C115.07 18.5153 114.951 18.8868 114.951 19.3585C114.951 20.0434 115.178 20.5216 115.63 20.7913C116.083 21.0659 116.583 21.2 117.132 21.2Z" fill="#5C5C5C"/>
</g>
<g id="Group_2">
<path id="Vector_5" d="M107.53 33.1569C107.133 33.1569 106.787 33.0696 106.49 32.8936C106.193 32.7191 105.963 32.4768 105.797 32.1715C105.63 31.8646 105.547 31.5124 105.547 31.1151C105.547 30.7015 105.63 30.3429 105.797 30.0392C105.963 29.7355 106.196 29.4981 106.495 29.3285C106.794 29.1589 107.141 29.0732 107.538 29.0732C107.924 29.0732 108.261 29.1556 108.546 29.3204C108.832 29.4852 109.057 29.7113 109.22 30.0005C109.383 30.288 109.466 30.6159 109.466 30.9826C109.466 31.0569 109.465 31.1215 109.463 31.1797C109.46 31.2378 109.453 31.3008 109.444 31.3687H106.453C106.469 31.5722 106.521 31.7547 106.611 31.9147C106.701 32.0746 106.823 32.199 106.98 32.2878C107.136 32.3766 107.314 32.4219 107.515 32.4219C107.732 32.4219 107.916 32.375 108.066 32.2797C108.217 32.186 108.334 32.0487 108.419 31.871H109.364C109.29 32.1069 109.171 32.3217 109.011 32.5156C108.85 32.7094 108.646 32.8645 108.401 32.9824C108.156 33.1003 107.864 33.1569 107.53 33.1569ZM106.459 30.7451H108.546C108.541 30.4576 108.437 30.2298 108.236 30.0618C108.035 29.8938 107.794 29.8098 107.515 29.8098C107.26 29.8098 107.032 29.8858 106.828 30.0376C106.624 30.1895 106.502 30.4253 106.459 30.7451Z" fill="#333333"/>
<path id="Vector_6" d="M109.958 33.0632V29.1669H110.831L110.847 29.7016C110.979 29.4981 111.162 29.3414 111.395 29.2348C111.629 29.1282 111.872 29.0732 112.125 29.0732C112.585 29.0732 112.958 29.217 113.244 29.5045C113.53 29.7921 113.673 30.2169 113.673 30.7774V33.0632H112.784V30.8873C112.784 30.5578 112.704 30.2977 112.546 30.1103C112.387 29.9229 112.154 29.8276 111.847 29.8276C111.54 29.8276 111.299 29.9278 111.121 30.1297C110.943 30.3316 110.855 30.6046 110.855 30.9503V33.0632H109.958Z" fill="#333333"/>
<path id="Vector_7" d="M115.354 33.0631L113.871 29.1669H114.822L115.892 32.2457L116.963 29.1669H117.908L116.424 33.0631H115.354Z" fill="#333333"/>
<path id="Vector_8" d="M118.727 28.545C118.564 28.545 118.423 28.4869 118.306 28.3722C118.19 28.2575 118.131 28.1186 118.131 27.9554C118.131 27.7939 118.19 27.6566 118.306 27.5435C118.422 27.4304 118.562 27.3755 118.727 27.3755C118.892 27.3755 119.03 27.432 119.148 27.5435C119.264 27.6566 119.322 27.7939 119.322 27.9554C119.322 28.1186 119.264 28.2575 119.148 28.3722C119.032 28.4869 118.89 28.545 118.727 28.545ZM118.275 33.0632V29.1669H119.179V33.0632H118.275Z" fill="#333333"/>
<path id="Vector_9" d="M121.79 33.1569C121.403 33.1569 121.057 33.0729 120.75 32.9049C120.443 32.7369 120.202 32.5011 120.024 32.1941C119.846 31.8872 119.758 31.5286 119.758 31.1135C119.758 30.6886 119.851 30.3252 120.035 30.0215C120.22 29.7178 120.469 29.4836 120.781 29.3188C121.093 29.154 121.44 29.0717 121.821 29.0717C122.207 29.0717 122.555 29.154 122.863 29.3188C123.172 29.4836 123.418 29.7178 123.601 30.0215C123.784 30.3252 123.875 30.6886 123.875 31.1135C123.875 31.506 123.787 31.8565 123.609 32.1667C123.431 32.4752 123.186 32.7175 122.871 32.8936C122.558 33.0697 122.196 33.1569 121.79 33.1569ZM121.798 32.3864C122.024 32.3864 122.225 32.3298 122.397 32.2168C122.568 32.1037 122.705 31.9518 122.804 31.758C122.906 31.5641 122.955 31.3445 122.955 31.0989C122.955 30.8421 122.904 30.6192 122.804 30.4318C122.703 30.2428 122.568 30.0974 122.397 29.9956C122.225 29.8939 122.028 29.8422 121.806 29.8422C121.573 29.8422 121.37 29.8971 121.199 30.0069C121.027 30.1168 120.895 30.267 120.806 30.4592C120.716 30.6499 120.67 30.8695 120.67 31.1151C120.67 31.3816 120.722 31.611 120.825 31.8016C120.928 31.9922 121.065 32.1376 121.238 32.2378C121.409 32.3379 121.595 32.3864 121.798 32.3864Z" fill="#333333"/>
<path id="Vector_10" d="M125.995 33.1569C125.693 33.1569 125.414 33.1036 125.157 32.9954C124.901 32.8887 124.692 32.7353 124.531 32.5366C124.369 32.3379 124.278 32.1053 124.257 31.8371H125.161C125.192 32.0197 125.283 32.1683 125.435 32.2814C125.585 32.3944 125.769 32.451 125.986 32.451C126.182 32.451 126.345 32.409 126.474 32.325C126.603 32.241 126.668 32.1263 126.668 31.9793C126.668 31.8533 126.623 31.7548 126.533 31.6853C126.443 31.6142 126.332 31.5593 126.2 31.5205C126.068 31.4818 125.931 31.4462 125.787 31.4139C125.539 31.3558 125.308 31.2863 125.094 31.2023C124.88 31.1183 124.705 31.0004 124.573 30.8485C124.441 30.6967 124.374 30.498 124.374 30.2509C124.374 30.0037 124.443 29.7937 124.58 29.6176C124.717 29.4416 124.901 29.3075 125.131 29.2138C125.361 29.1201 125.619 29.0717 125.905 29.0717C126.339 29.0717 126.699 29.1799 126.988 29.3931C127.277 29.6063 127.437 29.9213 127.468 30.3349H126.611C126.59 30.1572 126.515 30.0199 126.385 29.9262C126.256 29.8325 126.088 29.784 125.88 29.784C125.701 29.784 125.551 29.8179 125.432 29.8858C125.312 29.9536 125.254 30.0635 125.254 30.2153C125.254 30.3203 125.298 30.4059 125.384 30.4754C125.471 30.5449 125.583 30.5998 125.717 30.6434C125.853 30.6886 125.986 30.7258 126.119 30.7581C126.388 30.8211 126.629 30.8938 126.84 30.9778C127.052 31.0618 127.22 31.1797 127.344 31.3315C127.468 31.4834 127.533 31.6901 127.538 31.9518C127.538 32.2038 127.47 32.4187 127.333 32.5964C127.196 32.774 127.01 32.9114 126.778 33.0083C126.548 33.1084 126.285 33.1569 125.995 33.1569Z" fill="#333333"/>
</g>
<g id="Group_3">
<path id="Vector_11" d="M36.0325 0H33.8117H24.1027V5.12875H35.5283V5.09968H36.0325C36.4094 5.09968 36.7146 4.79761 36.7146 4.42446V0.675219C36.7146 0.302071 36.4094 0 36.0325 0Z" fill="#FFCC50"/>
<path id="Vector_12" d="M24.1027 11.1654L23.3635 11.9004L22.6488 11.1928L21.9341 11.9004L21.2194 11.1928L20.5047 11.9004L19.79 11.1928L19.0753 11.9004L18.3605 11.1928L17.6458 11.9004L16.9311 11.1928L16.2164 11.9004L15.5017 11.1928L14.787 11.9004L14.0723 11.1928L13.3576 11.9004L12.6168 11.167L12.6184 11.1654H12.6168V5.6134H1.18466V32.2991C1.18466 33.2376 1.95322 33.9984 2.90127 33.9984H12.2871V26.5419C12.2871 25.9588 12.7685 25.4823 13.3576 25.4823H23.1285C23.7176 25.4823 24.199 25.9588 24.199 26.5419V33.9984H33.81C34.7581 33.9984 35.5266 33.2376 35.5266 32.2991V5.6134H24.1011V11.1654H24.1027Z" fill="#FFCC50"/>
<path id="Vector_13" d="M12.6102 0H2.9029H0.682075C0.305139 0 0 0.302071 0 0.675219V4.42607C0 4.79922 0.305139 5.10129 0.682075 5.10129H1.18629V5.13037H12.6119V0H12.6102Z" fill="#FFCC50"/>
</g>
</g>
<defs>
<clipPath id="clip0_5660_39">
<rect width="128" height="34" fill="white"/>
</clipPath>
</defs>
</svg>
