<svg width="150" height="41" viewBox="0 0 150 41" fill="none" xmlns="http://www.w3.org/2000/svg">
<g id="Logo" clip-path="url(#clip0_5660_115)">
<g id="Group">
<path id="Vector" d="M53.5134 29.5381V0.210449H60.1335V11.1866H71.907V0.210449H78.485V29.5381H71.907V16.885H60.1335V29.5381H53.5134Z" fill="white"/>
<path id="Vector_2" d="M91.054 30.0411C89.1265 30.0411 87.352 29.628 85.7323 28.8058C84.1127 27.9816 82.8143 26.7597 81.8352 25.14C80.8581 23.5204 80.3685 21.5221 80.3685 19.1491C80.3685 16.776 80.8428 14.7777 81.7931 13.1581C82.7416 11.5384 84.0266 10.3165 85.6482 9.49237C87.2678 8.66821 89.0691 8.25708 91.0521 8.25708C93.1192 8.25708 94.9416 8.6835 96.5191 9.53444C98.0967 10.3873 99.3396 11.6015 100.248 13.1791C101.154 14.7567 101.609 16.6364 101.609 18.8144C101.609 19.0936 101.602 19.3938 101.588 19.7151C101.573 20.0363 101.539 20.3652 101.483 20.6999H86.8204C86.9045 21.7057 87.1474 22.5012 87.5527 23.0882C87.9581 23.6753 88.461 24.1017 89.0615 24.3656C89.6619 24.6314 90.2547 24.7633 90.8418 24.7633C91.6506 24.7633 92.3352 24.5951 92.8955 24.2604C93.4538 23.9258 93.886 23.4095 94.1939 22.7096H101.107C100.799 24.0233 100.185 25.2376 99.2632 26.3543C98.3415 27.471 97.1903 28.3659 95.8059 29.0352C94.4252 29.7045 92.84 30.0411 91.054 30.0411ZM86.8223 17.0953H94.9492C94.9492 15.9499 94.5725 15.0569 93.8172 14.4144C93.0638 13.7719 92.1134 13.4507 90.968 13.4507C89.8512 13.4507 88.9295 13.7796 88.2029 14.4355C87.4782 15.0913 87.0173 15.9786 86.8223 17.0953Z" fill="white"/>
<path id="Vector_3" d="M127.964 0.210449L117.699 11.3548L129.136 29.5381H121.47L113.343 16.0054L110.786 18.8125V29.5381H104.166V0.210449H110.786V10.1406L119.835 0.210449H127.964Z" fill="white"/>
<path id="Vector_4" d="M135.001 30.0411C133.8 30.0411 132.681 29.7963 131.648 29.3087C130.614 28.8211 129.784 28.1078 129.155 27.1728C128.526 26.2377 128.212 25.098 128.212 23.7575C128.212 22.222 128.618 20.9714 129.426 20.0077C130.235 19.0439 131.318 18.3383 132.673 17.8928C134.027 17.4472 135.515 17.2235 137.135 17.2235H141.827C141.827 16.4969 141.701 15.8544 141.45 15.296C141.2 14.7376 140.821 14.2978 140.318 13.9766C139.816 13.6553 139.186 13.4947 138.433 13.4947C137.651 13.4947 136.938 13.663 136.297 13.9976C135.655 14.3322 135.249 14.9059 135.083 15.7148H128.839C128.95 14.1793 129.469 12.8598 130.39 11.7565C131.312 10.6531 132.492 9.79454 133.93 9.18072C135.368 8.5669 136.911 8.25903 138.559 8.25903C140.487 8.25903 142.183 8.61471 143.65 9.32796C145.116 10.0393 146.254 11.0604 147.065 12.3856C147.874 13.7127 148.279 15.3113 148.279 17.1833V22.505C148.279 23.1189 148.369 23.595 148.551 23.9296C148.732 24.2643 149.214 24.4326 149.996 24.4326V29.5439C148.656 29.5439 147.537 29.4598 146.644 29.2934C145.749 29.1251 144.996 28.8115 144.382 28.3507C143.768 27.8898 143.21 27.2129 142.707 26.318C141.785 27.5476 140.695 28.475 139.439 29.1041C138.186 29.7256 136.704 30.0411 135.001 30.0411ZM137.265 25.0961C138.075 25.0961 138.821 24.9221 139.506 24.5722C140.19 24.2222 140.741 23.727 141.16 23.0844C141.579 22.4419 141.789 21.7153 141.789 20.9064V20.654H137.81C137.251 20.654 136.735 20.7305 136.259 20.8854C135.783 21.0384 135.406 21.2774 135.127 21.5967C134.848 21.918 134.708 22.3578 134.708 22.9162C134.708 23.727 134.974 24.293 135.503 24.6123C136.035 24.9374 136.62 25.0961 137.265 25.0961Z" fill="white"/>
</g>
<g id="Group_2">
<path id="Vector_5" d="M126.011 39.2501C125.547 39.2501 125.141 39.1468 124.793 38.9384C124.445 38.7319 124.176 38.4451 123.98 38.0836C123.785 37.7203 123.688 37.3035 123.688 36.8331C123.688 36.3435 123.785 35.919 123.98 35.5595C124.176 35.2 124.449 34.9189 124.799 34.7181C125.149 34.5174 125.556 34.416 126.021 34.416C126.474 34.416 126.868 34.5135 127.203 34.7086C127.537 34.9036 127.801 35.1713 127.992 35.5136C128.184 35.854 128.281 36.2422 128.281 36.6763C128.281 36.7642 128.279 36.8407 128.277 36.9095C128.273 36.9784 128.266 37.053 128.254 37.1333H124.749C124.768 37.3742 124.829 37.5903 124.935 37.7796C125.04 37.9689 125.183 38.1162 125.367 38.2213C125.55 38.3265 125.759 38.38 125.994 38.38C126.248 38.38 126.464 38.3246 126.64 38.2118C126.816 38.1009 126.954 37.9383 127.053 37.728H128.161C128.075 38.0072 127.935 38.2615 127.748 38.4909C127.558 38.7204 127.319 38.904 127.032 39.0436C126.746 39.1832 126.403 39.2501 126.011 39.2501ZM124.757 36.3952H127.203C127.197 36.0548 127.074 35.7852 126.839 35.5863C126.604 35.3874 126.321 35.288 125.994 35.288C125.696 35.288 125.428 35.3779 125.189 35.5576C124.95 35.7374 124.807 36.0165 124.757 36.3952Z" fill="#FFCC50"/>
<path id="Vector_6" d="M128.857 39.1392V34.5269H129.88L129.899 35.1599C130.054 34.9189 130.268 34.7334 130.541 34.6072C130.815 34.481 131.1 34.416 131.396 34.416C131.935 34.416 132.373 34.5862 132.708 34.9266C133.042 35.267 133.211 35.7699 133.211 36.4334V39.1392H132.169V36.5634C132.169 36.1733 132.075 35.8655 131.889 35.6437C131.704 35.4218 131.43 35.309 131.071 35.309C130.711 35.309 130.428 35.4276 130.22 35.6666C130.012 35.9056 129.908 36.2288 129.908 36.638V39.1392H128.857Z" fill="#FFCC50"/>
<path id="Vector_7" d="M135.18 39.1391L133.442 34.5269H134.557L135.811 38.1715L137.066 34.5269H138.173L136.435 39.1391H135.18Z" fill="#FFCC50"/>
<path id="Vector_8" d="M139.133 33.7907C138.942 33.7907 138.777 33.7219 138.64 33.5861C138.504 33.4503 138.435 33.2859 138.435 33.0927C138.435 32.9015 138.504 32.739 138.64 32.6051C138.775 32.4713 138.94 32.4062 139.133 32.4062C139.326 32.4062 139.489 32.4732 139.626 32.6051C139.762 32.739 139.831 32.9015 139.831 33.0927C139.831 33.2859 139.762 33.4503 139.626 33.5861C139.49 33.7219 139.324 33.7907 139.133 33.7907ZM138.603 39.1392V34.5269H139.663V39.1392H138.603Z" fill="#FFCC50"/>
<path id="Vector_9" d="M142.722 39.2501C142.269 39.2501 141.864 39.1506 141.504 38.9518C141.145 38.7529 140.862 38.4737 140.653 38.1104C140.445 37.7471 140.341 37.3225 140.341 36.8311C140.341 36.3282 140.45 35.8979 140.666 35.5384C140.883 35.179 141.175 34.9017 141.54 34.7066C141.906 34.5116 142.313 34.4141 142.758 34.4141C143.212 34.4141 143.619 34.5116 143.98 34.7066C144.342 34.9017 144.63 35.179 144.845 35.5384C145.059 35.8979 145.166 36.3282 145.166 36.8311C145.166 37.2958 145.063 37.7107 144.854 38.0779C144.646 38.4431 144.359 38.7299 143.99 38.9384C143.623 39.1468 143.198 39.2501 142.722 39.2501ZM142.732 38.3379C142.997 38.3379 143.233 38.271 143.433 38.1371C143.634 38.0033 143.795 37.8235 143.912 37.5941C144.03 37.3646 144.087 37.1046 144.087 36.8139C144.087 36.5099 144.028 36.246 143.912 36.0241C143.793 35.8004 143.634 35.6283 143.433 35.5079C143.233 35.3874 143.001 35.3262 142.741 35.3262C142.468 35.3262 142.231 35.3912 142.03 35.5212C141.829 35.6513 141.674 35.8291 141.569 36.0567C141.464 36.2823 141.41 36.5424 141.41 36.833C141.41 37.1485 141.472 37.4201 141.592 37.6457C141.712 37.8713 141.873 38.0435 142.076 38.162C142.277 38.2806 142.495 38.3379 142.732 38.3379Z" fill="#FFCC50"/>
<path id="Vector_10" d="M147.65 39.2501C147.296 39.2501 146.969 39.187 146.669 39.0588C146.369 38.9326 146.124 38.751 145.935 38.5158C145.745 38.2806 145.638 38.0052 145.613 37.6878H146.673C146.709 37.9039 146.816 38.0798 146.994 38.2136C147.17 38.3475 147.386 38.4144 147.64 38.4144C147.87 38.4144 148.061 38.3647 148.212 38.2653C148.363 38.1658 148.44 38.0301 148.44 37.8561C148.44 37.7069 148.386 37.5903 148.281 37.508C148.176 37.4239 148.046 37.3589 147.891 37.313C147.736 37.2671 147.575 37.225 147.407 37.1868C147.116 37.1179 146.845 37.0357 146.594 36.9363C146.344 36.8368 146.139 36.6972 145.984 36.5175C145.829 36.3378 145.751 36.1026 145.751 35.81C145.751 35.5174 145.831 35.2688 145.992 35.0604C146.153 34.852 146.369 34.6932 146.638 34.5823C146.908 34.4714 147.21 34.4141 147.545 34.4141C148.053 34.4141 148.476 34.5422 148.814 34.7946C149.153 35.047 149.34 35.4199 149.377 35.9094H148.373C148.348 35.6991 148.26 35.5365 148.107 35.4256C147.956 35.3147 147.759 35.2574 147.516 35.2574C147.306 35.2574 147.13 35.2975 146.99 35.3778C146.851 35.4581 146.782 35.5882 146.782 35.7679C146.782 35.8922 146.833 35.9936 146.935 36.0758C147.036 36.158 147.168 36.223 147.325 36.2746C147.484 36.3282 147.64 36.3722 147.795 36.4104C148.111 36.485 148.394 36.571 148.64 36.6705C148.889 36.7699 149.086 36.9095 149.231 37.0893C149.377 37.269 149.453 37.5138 149.459 37.8235C149.459 38.1219 149.379 38.3762 149.218 38.5865C149.057 38.7969 148.839 38.9594 148.568 39.0741C148.298 39.1927 147.99 39.2501 147.65 39.2501Z" fill="#FFCC50"/>
</g>
<g id="Group_3">
<path id="Vector_11" d="M42.2256 0H39.623H28.2454V6.07129H41.6347V6.03687H42.2256C42.6673 6.03687 43.0249 5.67928 43.0249 5.23756V0.799307C43.0249 0.357584 42.6673 0 42.2256 0Z" fill="#FFCC50"/>
<path id="Vector_12" d="M28.2454 13.2173L27.3791 14.0874L26.5416 13.2498L25.704 14.0874L24.8665 13.2498L24.0289 14.0874L23.1914 13.2498L22.3538 14.0874L21.5163 13.2498L20.6787 14.0874L19.8412 13.2498L19.0036 14.0874L18.1661 13.2498L17.3285 14.0874L16.491 13.2498L15.6534 14.0874L14.7853 13.2192L14.7872 13.2173H14.7853V6.64502H1.38827V38.2348C1.38827 39.3458 2.28892 40.2465 3.39992 40.2465H14.399V31.4197C14.399 30.7294 14.9631 30.1653 15.6534 30.1653H27.1038C27.7941 30.1653 28.3582 30.7294 28.3582 31.4197V40.2465H39.6211C40.7321 40.2465 41.6328 39.3458 41.6328 38.2348V6.64502H28.2434V13.2173H28.2454Z" fill="#FFCC50"/>
<path id="Vector_13" d="M14.7776 0H3.40183H0.799307C0.357584 0 0 0.357584 0 0.799307V5.23947C0 5.6812 0.357584 6.03878 0.799307 6.03878H1.39018V6.0732H14.7795V0H14.7776Z" fill="#FFCC50"/>
</g>
</g>
<defs>
<clipPath id="clip0_5660_115">
<rect width="150" height="40.2483" fill="white"/>
</clipPath>
</defs>
</svg>
