<svg width="24" height="25" viewBox="0 0 24 25" fill="none" xmlns="http://www.w3.org/2000/svg">
<g id="Icons">
<path id="Vector" d="M23 9.95828C23.0495 8.52693 22.7364 7.10629 22.09 5.82828C21.6514 5.30387 21.0427 4.94999 20.37 4.82828C17.5875 4.5758 14.7935 4.47232 12 4.51828C9.21665 4.47023 6.43271 4.57038 3.66 4.81828C3.11182 4.91799 2.60452 5.17512 2.2 5.55828C1.3 6.38828 1.2 7.80828 1.1 9.00828C0.954912 11.1658 0.954912 13.3307 1.1 15.4883C1.12893 16.1637 1.22949 16.8341 1.4 17.4883C1.52058 17.9933 1.76452 18.4606 2.11 18.8483C2.51727 19.2517 3.03638 19.5235 3.6 19.6283C5.75592 19.8944 7.92822 20.0047 10.1 19.9583C13.6 20.0083 16.67 19.9583 20.3 19.6783C20.8775 19.5799 21.4112 19.3078 21.83 18.8983C22.11 18.6182 22.3191 18.2754 22.44 17.8983C22.7976 16.8009 22.9733 15.6524 22.96 14.4983C23 13.9383 23 10.5583 23 9.95828ZM9.74 15.0983V8.90828L15.66 12.0183C14 12.9383 11.81 13.9783 9.74 15.0983Z" fill="white"/>
</g>
</svg>
