<svg width="16" height="17" viewBox="0 0 16 17" fill="none" xmlns="http://www.w3.org/2000/svg">
<g clip-path="url(#clip0_11_153)">
<path d="M8 15.5C6.14348 15.5 4.36301 14.7625 3.05025 13.4497C1.7375 12.137 1 10.3565 1 8.5C1 6.64348 1.7375 4.86301 3.05025 3.55025C4.36301 2.2375 6.14348 1.5 8 1.5C9.85652 1.5 11.637 2.2375 12.9497 3.55025C14.2625 4.86301 15 6.64348 15 8.5C15 10.3565 14.2625 12.137 12.9497 13.4497C11.637 14.7625 9.85652 15.5 8 15.5ZM8 16.5C10.1217 16.5 12.1566 15.6571 13.6569 14.1569C15.1571 12.6566 16 10.6217 16 8.5C16 6.37827 15.1571 4.34344 13.6569 2.84315C12.1566 1.34285 10.1217 0.5 8 0.5C5.87827 0.5 3.84344 1.34285 2.34315 2.84315C0.842855 4.34344 0 6.37827 0 8.5C0 10.6217 0.842855 12.6566 2.34315 14.1569C3.84344 15.6571 5.87827 16.5 8 16.5Z" fill="#FFB800"/>
<path d="M8.93001 7.088L6.64001 7.375L6.55801 7.755L7.00801 7.838C7.30201 7.908 7.36001 8.014 7.29601 8.307L6.55801 11.775C6.36401 12.672 6.66301 13.094 7.36601 13.094C7.91101 13.094 8.54401 12.842 8.83101 12.496L8.91901 12.08C8.71901 12.256 8.42701 12.326 8.23301 12.326C7.95801 12.326 7.85801 12.133 7.92901 11.793L8.93001 7.088ZM9.00001 5C9.00001 5.26522 8.89466 5.51957 8.70712 5.70711C8.51958 5.89464 8.26523 6 8.00001 6C7.7348 6 7.48044 5.89464 7.29291 5.70711C7.10537 5.51957 7.00001 5.26522 7.00001 5C7.00001 4.73478 7.10537 4.48043 7.29291 4.29289C7.48044 4.10536 7.7348 4 8.00001 4C8.26523 4 8.51958 4.10536 8.70712 4.29289C8.89466 4.48043 9.00001 4.73478 9.00001 5Z" fill="#FFB800"/>
</g>
<defs>
<clipPath id="clip0_11_153">
<rect width="16" height="16" fill="white" transform="translate(0 0.5)"/>
</clipPath>
</defs>
</svg>
