<?xml version="1.0" encoding="utf-8"?>
<svg width="219px" height="37px" viewBox="0 0 219 37" version="1.1" xmlns:xlink="http://www.w3.org/1999/xlink" xmlns="http://www.w3.org/2000/svg">
  <defs>
    <linearGradient x1="0.48428887" y1="1.0148883" x2="0.51598674" y2="-0.014888338" id="gradient_1">
      <stop offset="0" stop-color="#009A44" />
      <stop offset="1" stop-color="#56C271" />
    </linearGradient>
    <linearGradient x1="-0.0007526911" y1="0.5000954" x2="1" y2="0.5000954" id="gradient_2">
      <stop offset="0" stop-color="#C5C5C5" />
      <stop offset="0.2" stop-color="#DADADA" />
      <stop offset="0.47" stop-color="#EEEEEE" />
      <stop offset="0.74" stop-color="#FBFBFB" />
      <stop offset="1" stop-color="#FFFFFF" />
    </linearGradient>
    <linearGradient x1="-0.00091793993" y1="0.50000405" x2="0.9996366" y2="0.50000405" id="gradient_3">
      <stop offset="0" stop-color="#FFFFFF" />
      <stop offset="0.26" stop-color="#FBFBFB" />
      <stop offset="0.53" stop-color="#EEEEEE" />
      <stop offset="0.8" stop-color="#DADADA" />
      <stop offset="1" stop-color="#C5C5C5" />
    </linearGradient>
  </defs>
  <g id="Logo-nuevo" transform="translate(1.079956 1.079956)">
    <g id="Group-4">
      <path d="M15.7755 3.33036e-15L33.8261 3.33036e-15L33.8261 18.1577C33.8158 26.9102 26.7558 34 18.0505 34L0 34L0 15.861C2.64993e-14 7.10123 7.06295 1.99822e-14 15.7755 3.33036e-15Z" id="Path" fill="url(#gradient_1)" fill-rule="evenodd" stroke="#FFFFFF" stroke-width="2.16" />
      <path d="M20.4127 5.58876C19.154 3.39521 16.6832 2.1672 13.709 2.1672C9.06497 2.32348 4.89756 5.07701 2.91225 9.30092L1.59762 9.30092C1.0315 9.29878 0.508448 8.99668 0.221411 8.50608C-0.0656258 8.01547 -0.0741135 7.40905 0.199079 6.91052L0.199079 6.91052C4.91683 -0.841897 17.2333 -3.12919 20.4127 5.58876Z" transform="translate(5.199291 6.1007886)" id="Path" fill="url(#gradient_2)" fill-rule="evenodd" stroke="none" />
      <path d="M20.1576 6.98062L23.8871 6.98062C22.2323 2.64962 18.0286 -0.150464 13.4167 0.00625688C7.79464 0.122328 2.66934 3.27004 0 8.24612C4.6618 0.549957 16.9876 -1.70921 20.1576 6.98062Z" transform="translate(5.4543114 4.6995606)" id="Path" fill="#FFFFFF" fill-rule="evenodd" stroke="none" />
      <path d="M3.72944 1.11552L0 1.11552C1.46381 5.33388 5.59417 8.08051 10.4518 8.08051C16.0237 7.98001 21.1195 4.9002 23.8218 0C19.8686 6.60877 7.52415 10.1428 3.72944 1.11552Z" transform="translate(4.5219502 21.194927)" id="Path" fill="#FFFFFF" fill-rule="evenodd" stroke="none" />
      <path d="M24.3806 3.35594C23.8079 2.57967 22.8889 2.14047 21.9285 2.18417L2.34896 2.18417C1.82499 2.17605 1.3372 1.91396 1.03931 1.48051C0.741416 1.04706 0.670106 0.495628 0.847855 0C0.594748 0.507347 0.373652 1.03021 0.185879 1.56548C-0.150746 2.45989 -0.0250547 3.46385 0.521529 4.24648C1.08939 5.03395 2.00653 5.48975 2.97364 5.46512L22.5532 5.46512C23.0766 5.51153 23.5468 5.80575 23.8193 6.25744C24.0918 6.70913 24.134 7.26428 23.9331 7.75241C24.2389 7.1719 24.5038 6.57047 24.7256 5.95258C25.0431 5.08275 24.9141 4.1115 24.3806 3.35594L24.3806 3.35594Z" transform="translate(4.4759254 13.217535)" id="Path" fill="#FFFFFF" fill-rule="evenodd" stroke="none" />
      <path d="M18.7218 0L17.4631 0C15.4832 4.21879 11.3222 6.96927 6.68503 7.12435C3.99188 7.25943 1.43591 5.92254 0 3.62779C3.81336 12.6645 16.2044 9.10229 20.1017 2.48415L20.1017 2.48415C20.3844 1.97796 20.3851 1.36045 20.1035 0.853621C19.822 0.346793 19.2987 0.0235081 18.7218 0L18.7218 0Z" transform="translate(8.251394 18.682657)" id="Path" fill="url(#gradient_3)" fill-rule="evenodd" stroke="none" />
    </g>
    <path d="M62.5957 19.142C62.5957 19.3905 62.3953 19.5919 62.1481 19.5919L60.647 19.5919C60.3999 19.5919 60.1995 19.3905 60.1995 19.142L60.1995 4.6777C60.1995 4.55836 60.2466 4.44391 60.3306 4.35953C60.4145 4.27514 60.5283 4.22774 60.647 4.22774L62.1108 4.22774C62.2295 4.22774 62.3433 4.27514 62.4273 4.35953C62.5112 4.44391 62.5584 4.55836 62.5584 4.6777L62.5957 19.142ZM57.3744 4.51833L56.0598 4.51833C55.792 4.47381 55.5269 4.61092 55.4071 4.8558L50.8666 15.8798L46.326 4.88393C46.205 4.63303 45.9395 4.48642 45.664 4.51833L44.3307 4.51833C44.1911 4.51759 44.0596 4.58373 43.9764 4.69644C43.8263 4.87757 43.7937 5.12949 43.8925 5.34326L49.5706 19.067C49.6748 19.3499 49.9258 19.5518 50.2232 19.5919L51.5006 19.5919C51.8047 19.5422 52.0582 19.3304 52.1625 19.0389L57.8499 5.31514C57.9513 5.09885 57.9106 4.84219 57.7474 4.66832C57.6584 4.55264 57.5199 4.4865 57.3744 4.49021L57.3744 4.51833ZM42.0651 5.59636L41.4777 6.67439C41.4486 6.72728 41.4107 6.77483 41.3658 6.815C41.1397 7.02448 40.806 7.06594 40.536 6.91811C40.4275 6.84685 40.3119 6.78716 40.191 6.74001C38.9187 6.19961 37.4617 6.336 36.3105 7.10325C35.1592 7.87051 34.4668 9.1666 34.4663 10.5553L34.4663 19.142C34.4688 19.2629 34.4228 19.3798 34.3386 19.4662C34.2544 19.5527 34.1391 19.6014 34.0188 19.6013L32.555 19.6013C32.3027 19.6013 32.0981 19.3957 32.0981 19.142L32.0981 4.94017C32.1032 4.69016 32.3063 4.49016 32.555 4.49021L32.8906 4.49021C33.6545 4.45162 34.3251 4.99666 34.4477 5.75572C35.5434 4.64732 37.033 4.02327 38.5874 4.02151L38.7459 4.02151C39.563 4.01975 40.3708 4.19562 41.1141 4.53708C41.2446 4.59333 41.515 4.73394 41.8972 4.94955C42.1108 5.07589 42.1853 5.35037 42.0651 5.56824L42.0651 5.59636ZM6.94303 10.4334L6.43955 10.349C4.84522 10.0678 2.85929 9.71161 2.81267 8.33361C2.79722 7.93215 2.95331 7.54321 3.24156 7.26496C4.13791 6.56617 5.26272 6.23159 6.39294 6.32754L6.48617 6.32754C7.68019 6.25512 8.86684 6.55994 9.87997 7.19934C9.95455 7.24621 10.1317 7.38682 10.3648 7.5743C10.6491 7.78668 11.045 7.75881 11.2972 7.50869L11.8845 6.87124C12.0415 6.70687 12.1109 6.4769 12.071 6.25255C12.0328 6.08416 11.9412 5.93283 11.81 5.82134C11.4929 5.54949 11.2599 5.37138 11.1293 5.27764C9.74253 4.37765 8.11752 3.92018 6.46753 3.96526L6.33699 3.96526C4.58146 3.86891 2.85708 4.46026 1.52601 5.61511C0.779758 6.35425 0.377096 7.37487 0.416503 8.42735C0.416503 11.7364 3.67044 12.2801 6.27173 12.7207C9.06881 13.1707 10.4021 13.6581 10.3648 14.9518C10.2902 16.9016 7.67027 17.1078 6.55144 17.1078C5.46283 17.1175 4.38911 16.8533 3.42803 16.3391C2.8671 16.0187 2.37319 15.5922 1.97355 15.083C1.84443 14.9086 1.63966 14.8074 1.42345 14.8111C1.24882 14.8112 1.08004 14.8744 0.947948 14.9892L0.220707 15.6454C-0.0377969 15.8922 -0.0737309 16.2936 0.136794 16.5829C0.642139 17.2106 1.23946 17.7574 1.90828 18.2046C3.31123 19.0618 4.92879 19.4976 6.57008 19.4607C12.2575 19.4607 12.7889 16.0766 12.8169 15.0361C12.9568 11.4458 9.36717 10.8365 6.94303 10.4334ZM149.594 17.1547C151.221 15.9591 152.297 14.1528 152.578 12.147C152.859 10.1412 152.321 8.1064 151.086 6.50565L152.177 5.23077C152.294 5.06512 152.294 4.84334 152.177 4.67769C151.723 4.02703 150.852 3.82842 150.163 4.21836C150.005 4.31003 149.863 4.42721 149.743 4.56521L149.37 5.01516C148.208 4.30816 146.878 3.92628 145.52 3.90902C141.287 3.90902 138.453 6.86187 138.453 11.2677C138.359 13.1974 139.067 15.0794 140.407 16.464C141.747 17.8486 143.599 18.6115 145.52 18.5702C147.711 18.5702 150.266 19.5076 150.266 22.2355C150.266 25.6664 146.639 25.9851 145.529 25.9851C143.469 25.9851 141.166 25.1414 140.867 22.7885C140.867 22.7885 140.867 22.7885 140.867 22.4323C140.862 22.1859 140.665 21.9873 140.42 21.9824L138.965 21.9824C138.722 21.9875 138.527 22.1874 138.527 22.4323L138.527 22.5542C138.519 22.6947 138.519 22.8355 138.527 22.976C138.853 26.2851 141.613 28.413 145.576 28.413C149.967 28.413 152.699 26.0601 152.699 22.2917C152.781 20.106 151.555 18.083 149.585 17.1547L149.594 17.1547ZM145.594 16.1235C144.322 16.1461 143.097 15.636 142.213 14.7152C141.329 13.7944 140.865 12.5457 140.933 11.2677C140.933 8.89606 142.145 6.35567 145.594 6.35567C148.392 6.35567 150.256 8.28674 150.256 11.2677C150.258 13.8885 148.19 16.0375 145.585 16.1235L145.594 16.1235ZM169.165 4.49021L168.54 4.49021C168.118 4.48011 167.71 4.64156 167.408 4.93801C167.106 5.23445 166.936 5.64081 166.936 6.06507L166.936 6.06507C165.588 4.70489 163.746 3.95667 161.836 3.99338C159.806 3.9646 157.852 4.76931 156.425 6.22173C154.998 7.67414 154.221 9.64871 154.275 11.6896C154.203 13.7383 154.969 15.7272 156.394 17.1935C157.819 18.6598 159.779 19.4757 161.817 19.4513C163.755 19.4892 165.617 18.6947 166.936 17.2672L166.936 19.142C166.936 19.3905 167.137 19.5919 167.384 19.5919L169.118 19.5919C169.363 19.587 169.56 19.3884 169.565 19.142L169.565 4.94017C169.562 4.70731 169.386 4.51395 169.155 4.49021L169.165 4.49021ZM161.957 17.0328C160.553 17.0604 159.2 16.5012 158.221 15.4885C157.242 14.4757 156.725 13.1002 156.792 11.6896C156.792 8.78514 159.134 6.43066 162.023 6.43066C164.911 6.43066 167.253 8.78514 167.253 11.6896C167.323 13.1254 166.787 14.5243 165.777 15.5417C164.767 16.5591 163.376 17.1006 161.948 17.0328L161.957 17.0328ZM108.281 17.0328C108.175 16.7672 107.931 16.5829 107.647 16.5547C107.538 16.553 107.43 16.5754 107.33 16.6203L106.864 16.8172C106.465 16.973 106.043 17.0586 105.615 17.0703C103.909 17.0703 103.62 16.1985 103.62 14.3706L103.62 6.59002L107.908 6.59002C108.153 6.58504 108.351 6.38647 108.356 6.14006L108.356 4.92142C108.351 4.67501 108.153 4.47644 107.908 4.47146L103.62 4.47146L103.62 0.449959C103.62 0.201453 103.419 0 103.172 0L102.659 0C101.885 -1.70633e-05 101.256 0.628028 101.251 1.40612L101.251 4.49021L98.5475 4.49021C98.3024 4.49519 98.1049 4.69376 98.1 4.94017L98.1 6.15881C98.1049 6.40522 98.3024 6.60379 98.5475 6.60877L101.251 6.60877L101.251 14.3893C101.251 17.7734 102.678 19.4232 105.633 19.4232C106.288 19.4135 106.935 19.2865 107.545 19.0482C107.703 18.992 108.011 18.8514 108.477 18.6358C108.7 18.5336 108.799 18.2705 108.701 18.0452L108.281 17.0328ZM121.614 5.44637L120.98 6.59002C120.848 6.82981 120.59 6.97199 120.318 6.95561C120.198 6.95657 120.079 6.92759 119.973 6.87124C119.862 6.79846 119.743 6.7387 119.619 6.69314C118.34 6.15335 116.878 6.28855 115.718 7.05379C114.559 7.81904 113.854 9.11405 113.838 10.5084L113.838 19.142C113.838 19.3921 113.639 19.5962 113.391 19.6013L111.927 19.6013C111.678 19.5962 111.479 19.3921 111.479 19.142L111.479 4.94017C111.484 4.69376 111.682 4.49519 111.927 4.49021L112.346 4.49021C113.11 4.45162 113.781 4.99666 113.903 5.75572C114.999 4.64732 116.489 4.02327 118.043 4.02151L118.202 4.02151C119.019 4.01975 119.827 4.19562 120.57 4.53708C120.874 4.67931 121.17 4.83893 121.456 5.01516C121.619 5.09881 121.686 5.29937 121.605 5.46512L121.614 5.44637ZM96.7853 10.6022L96.7853 19.142C96.7853 19.2613 96.7382 19.3758 96.6543 19.4602C96.5703 19.5445 96.4565 19.5919 96.3378 19.5919L94.8647 19.5919C94.6196 19.587 94.4221 19.3884 94.4171 19.142L94.4171 10.7053C94.475 9.52613 94.0505 8.37453 93.2424 7.51806C92.3425 6.72797 91.1721 6.32115 89.9791 6.38379L89.8859 6.38379C88.6883 6.36967 87.5378 6.85216 86.7051 7.71771C85.8725 8.58325 85.4312 9.75542 85.4851 10.9584L85.4851 19.142C85.4802 19.3884 85.2827 19.587 85.0376 19.5919L83.5645 19.5919C83.3173 19.5919 83.1169 19.3905 83.1169 19.142L83.1169 4.99642C83.1169 4.71685 83.3423 4.49021 83.6204 4.49021L83.8721 4.49021C84.6473 4.45284 85.3244 5.0121 85.4385 5.78384C86.6373 4.61407 88.2433 3.96149 89.9138 3.96526L89.9138 3.96526C94.0628 3.96526 96.776 6.54315 96.776 10.6209L96.7853 10.6022ZM29.5994 11.3802C29.5994 7.76179 27.2778 3.88089 22.1871 3.88089C20.1404 3.84112 18.1673 4.64888 16.7303 6.11488C15.2934 7.58088 14.5189 9.57624 14.5884 11.6333C14.479 13.6997 15.2412 15.7167 16.6876 17.1888C18.134 18.6609 20.1307 19.4517 22.1871 19.367C24.3099 19.4071 26.3689 18.6366 27.9491 17.2109C28.0517 17.1078 28.2288 16.9109 28.4712 16.6203C28.6144 16.4489 28.6665 16.2185 28.6111 16.0017C28.5713 15.8368 28.4757 15.691 28.3407 15.5892L27.6601 15.0455C27.5372 14.9422 27.382 14.8858 27.2219 14.8861C27.0159 14.8888 26.8202 14.977 26.6811 15.1299C26.5432 15.3024 26.3936 15.4653 26.2336 15.6173C25.088 16.5555 23.6642 17.0832 22.1871 17.1172C19.7635 17.2238 17.6201 15.5489 17.1244 13.1613L29.4782 13.1613C29.5441 12.576 29.5814 11.9879 29.5901 11.399L29.5994 11.3802ZM17.1244 11.3802C17.1244 8.7367 18.6069 6.29942 22.1965 6.29942C25.497 6.29942 27.2778 8.17425 27.2778 11.3802L17.1244 11.3802ZM80.4037 11.3802C80.4037 7.76179 78.0822 3.88089 72.9915 3.88089C70.9447 3.84112 68.9716 4.64888 67.5347 6.11488C66.0977 7.58088 65.3233 9.57624 65.3927 11.6333C65.2834 13.6997 66.0455 15.7167 67.492 17.1888C68.9384 18.6609 70.9351 19.4517 72.9915 19.367C75.1143 19.4071 77.1733 18.6366 78.7535 17.2109C78.856 17.1078 79.0332 16.9109 79.2756 16.6203C79.4167 16.4478 79.4716 16.22 79.4248 16.0017C79.3811 15.8361 79.2824 15.6905 79.1451 15.5892L78.4738 15.0455C78.3465 14.9435 78.1889 14.8874 78.0262 14.8861C77.8202 14.8888 77.6245 14.977 77.4855 15.1299C77.3475 15.3024 77.198 15.4653 77.0379 15.6173C75.8924 16.5555 74.4686 17.0832 72.9915 17.1172C70.5678 17.2238 68.4244 15.5489 67.9288 13.1613L80.2919 13.1613C80.2919 13.1613 80.3944 12.2145 80.3944 11.399L80.4037 11.3802ZM67.9288 11.3802C67.9288 8.7367 69.4019 6.44003 72.9915 6.44003C76.292 6.44003 78.0822 8.21175 78.0822 11.3802L67.9288 11.3802ZM136.532 11.3802C136.532 7.76179 134.21 3.88089 129.12 3.88089C127.073 3.84112 125.1 4.64888 123.663 6.11488C122.226 7.58088 121.451 9.57624 121.521 11.6333C121.411 13.6997 122.174 15.7167 123.62 17.1888C125.067 18.6609 127.063 19.4517 129.12 19.367C131.229 19.4177 133.279 18.6681 134.863 17.2672C135.05 17.0821 135.224 16.8849 135.385 16.6766C135.534 16.5084 135.59 16.2762 135.534 16.0579C135.494 15.893 135.399 15.7472 135.264 15.6454L134.583 15.1017C134.46 14.9984 134.305 14.942 134.145 14.9424C133.939 14.945 133.743 15.0333 133.604 15.1861C133.466 15.3587 133.317 15.5215 133.157 15.6736C132.01 16.6105 130.587 17.1381 129.11 17.1734C126.685 17.284 124.54 15.6074 124.048 13.2175L136.401 13.2175C136.472 12.6138 136.513 12.0068 136.523 11.399L136.532 11.3802ZM124.048 11.3615C124.048 8.71795 125.511 6.42128 129.11 6.42128C132.411 6.42128 134.201 8.193 134.201 11.3615L124.048 11.3615ZM62.5957 1.46237L62.5957 0.449959C62.5957 0.201453 62.3953 0 62.1481 0L61.1505 0C60.6356 0 60.2181 0.419694 60.2181 0.937414L60.2181 1.94982C60.2181 2.06916 60.2653 2.18361 60.3492 2.26799C60.4331 2.35237 60.547 2.39978 60.6657 2.39978L61.6633 2.39978C62.1782 2.39978 62.5957 1.98008 62.5957 1.46237Z" transform="translate(46.43457 5.5776367)" id="Shape" fill="#009A44" stroke="none" />
  </g>
</svg>