<svg width="24" height="25" viewBox="0 0 24 25" fill="none" xmlns="http://www.w3.org/2000/svg">
<g id="Icons">
<path id="Vector" d="M20.47 2.24819H3.53C3.33958 2.24554 3.1505 2.28043 2.97356 2.35087C2.79663 2.42131 2.6353 2.52591 2.4988 2.6587C2.36229 2.79149 2.25328 2.94987 2.17799 3.1248C2.1027 3.29972 2.06261 3.48776 2.06 3.67819V20.8182C2.06261 21.0086 2.1027 21.1967 2.17799 21.3716C2.25328 21.5465 2.36229 21.7049 2.4988 21.8377C2.6353 21.9705 2.79663 22.0751 2.97356 22.1455C3.1505 22.2159 3.33958 22.2508 3.53 22.2482H20.47C20.6604 22.2508 20.8495 22.2159 21.0264 22.1455C21.2034 22.0751 21.3647 21.9705 21.5012 21.8377C21.6377 21.7049 21.7467 21.5465 21.822 21.3716C21.8973 21.1967 21.9374 21.0086 21.94 20.8182V3.67819C21.9374 3.48776 21.8973 3.29972 21.822 3.1248C21.7467 2.94987 21.6377 2.79149 21.5012 2.6587C21.3647 2.52591 21.2034 2.42131 21.0264 2.35087C20.8495 2.28043 20.6604 2.24554 20.47 2.24819ZM8.09 18.9882H5.09V9.98819H8.09V18.9882ZM6.59 8.72819C6.17626 8.72819 5.77947 8.56383 5.48691 8.27127C5.19435 7.97872 5.03 7.58192 5.03 7.16819C5.03 6.75445 5.19435 6.35766 5.48691 6.0651C5.77947 5.77254 6.17626 5.60819 6.59 5.60819C6.80969 5.58327 7.03217 5.60504 7.24287 5.67207C7.45357 5.7391 7.64774 5.84988 7.81265 5.99715C7.97757 6.14442 8.10952 6.32486 8.19987 6.52667C8.29021 6.72847 8.33692 6.94708 8.33692 7.16819C8.33692 7.38929 8.29021 7.6079 8.19987 7.8097C8.10952 8.01151 7.97757 8.19195 7.81265 8.33923C7.64774 8.4865 7.45357 8.59727 7.24287 8.6643C7.03217 8.73133 6.80969 8.7531 6.59 8.72819ZM18.91 18.9882H15.91V14.1582C15.91 12.9482 15.48 12.1582 14.39 12.1582C14.0527 12.1607 13.7242 12.2665 13.4488 12.4614C13.1735 12.6563 12.9645 12.9309 12.85 13.2482C12.7717 13.4832 12.7378 13.7308 12.75 13.9782V18.9782H9.75C9.75 18.9782 9.75 10.7982 9.75 9.97819H12.75V11.2482C13.0225 10.7753 13.4189 10.3857 13.8964 10.1214C14.374 9.85707 14.9146 9.72804 15.46 9.74819C17.46 9.74819 18.91 11.0382 18.91 13.8082V18.9882Z" fill="white"/>
</g>
</svg>
