<svg width="198" height="25" viewBox="0 0 198 25" fill="none" xmlns="http://www.w3.org/2000/svg">
<path d="M135.5 22.1081V3.24829H139.754V10.3067H147.32V3.24829H151.547V22.1081H147.32V13.9712H139.754V22.1081H135.5Z" fill="white"/>
<path d="M159.624 22.4315C158.385 22.4315 157.245 22.1659 156.204 21.6371C155.163 21.1071 154.329 20.3214 153.7 19.2798C153.072 18.2383 152.757 16.9532 152.757 15.4272C152.757 13.9011 153.062 12.6161 153.673 11.5746C154.282 10.533 155.108 9.74723 156.15 9.21723C157.191 8.68724 158.348 8.42285 159.622 8.42285C160.951 8.42285 162.122 8.69707 163.136 9.24429C164.149 9.79273 164.948 10.5736 165.532 11.5881C166.114 12.6026 166.407 13.8114 166.407 15.212C166.407 15.3915 166.402 15.5846 166.393 15.7912C166.383 15.9978 166.361 16.2093 166.326 16.4245H156.903C156.957 17.0713 157.113 17.5828 157.374 17.9603C157.634 18.3379 157.957 18.6121 158.343 18.7818C158.729 18.9527 159.11 19.0376 159.487 19.0376C160.007 19.0376 160.447 18.9293 160.807 18.7141C161.166 18.499 161.444 18.1669 161.641 17.7169H166.083C165.886 18.5617 165.491 19.3425 164.899 20.0607C164.307 20.7788 163.567 21.3543 162.677 21.7847C161.79 22.2151 160.771 22.4315 159.624 22.4315ZM156.904 14.1065H162.127C162.127 13.3699 161.885 12.7956 161.399 12.3825C160.915 11.9693 160.304 11.7627 159.568 11.7627C158.851 11.7627 158.258 11.9742 157.792 12.396C157.326 12.8178 157.03 13.3884 156.904 14.1065Z" fill="white"/>
<path d="M183.342 3.24829L176.746 10.4149L184.095 22.1081H179.169L173.946 13.4056L172.304 15.2107V22.1081H168.05V3.24829H172.304V9.63408L178.118 3.24829H183.342Z" fill="white"/>
<path d="M187.864 22.4315C187.092 22.4315 186.373 22.2741 185.71 21.9605C185.045 21.647 184.512 21.1883 184.107 20.587C183.703 19.9856 183.502 19.2527 183.502 18.3907C183.502 17.4033 183.762 16.5991 184.282 15.9793C184.802 15.3595 185.497 14.9058 186.368 14.6193C187.238 14.3327 188.194 14.1889 189.235 14.1889H192.251C192.251 13.7216 192.17 13.3084 192.009 12.9493C191.848 12.5903 191.604 12.3074 191.281 12.1009C190.958 11.8943 190.554 11.791 190.069 11.791C189.567 11.791 189.109 11.8992 188.697 12.1144C188.284 12.3296 188.024 12.6985 187.917 13.2186H183.905C183.976 12.2312 184.309 11.3827 184.901 10.6732C185.493 9.96365 186.252 9.41152 187.176 9.01678C188.1 8.62205 189.091 8.42407 190.151 8.42407C191.389 8.42407 192.479 8.6528 193.422 9.11147C194.364 9.56892 195.095 10.2256 195.616 11.0777C196.136 11.9312 196.397 12.9592 196.397 14.163V17.5853C196.397 17.98 196.454 18.2862 196.571 18.5014C196.688 18.7166 196.997 18.8248 197.5 18.8248V22.1118C196.639 22.1118 195.92 22.0577 195.346 21.9507C194.771 21.8425 194.287 21.6408 193.892 21.3445C193.498 21.0481 193.139 20.6128 192.816 20.0373C192.224 20.828 191.523 21.4244 190.716 21.8289C189.911 22.2286 188.959 22.4315 187.864 22.4315ZM189.319 19.2515C189.84 19.2515 190.319 19.1396 190.759 18.9146C191.199 18.6895 191.553 18.3711 191.822 17.9579C192.091 17.5447 192.226 17.0774 192.226 16.5573V16.3949H189.669C189.31 16.3949 188.978 16.4441 188.672 16.5437C188.366 16.6421 188.124 16.7958 187.945 17.0012C187.766 17.2078 187.676 17.4906 187.676 17.8497C187.676 18.3711 187.847 18.735 188.187 18.9404C188.529 19.1495 188.905 19.2515 189.319 19.2515Z" fill="white"/>
<path d="M101.66 5.24821C100.6 4.18542 99.1946 3.53675 97.6981 3.41938C96.2017 3.30201 94.7126 3.72368 93.4998 4.60821C92.2274 3.66185 90.6438 3.23272 89.0677 3.40725C87.4916 3.58178 86.0402 4.34699 85.0058 5.5488C83.9713 6.7506 83.4306 8.29973 83.4926 9.88423C83.5546 11.4687 84.2146 12.9709 85.3398 14.0882L91.5498 20.3082C92.0698 20.82 92.7702 21.1068 93.4998 21.1068C94.2294 21.1068 94.9298 20.82 95.4498 20.3082L101.66 14.0882C102.827 12.9135 103.483 11.3245 103.483 9.66821C103.483 8.01194 102.827 6.42295 101.66 5.24821ZM100.25 12.7082L94.0398 18.9182C93.9691 18.9896 93.885 19.0462 93.7923 19.0849C93.6996 19.1235 93.6002 19.1434 93.4998 19.1434C93.3994 19.1434 93.2999 19.1235 93.2072 19.0849C93.1146 19.0462 93.0305 18.9896 92.9598 18.9182L86.7498 12.6782C85.9655 11.8766 85.5264 10.7997 85.5264 9.67821C85.5264 8.55675 85.9655 7.47987 86.7498 6.67821C87.5489 5.8892 88.6268 5.44678 89.7498 5.44678C90.8728 5.44678 91.9506 5.8892 92.7498 6.67821C92.8428 6.77194 92.9534 6.84634 93.0752 6.8971C93.1971 6.94787 93.3278 6.97401 93.4598 6.97401C93.5918 6.97401 93.7225 6.94787 93.8444 6.8971C93.9662 6.84634 94.0768 6.77194 94.1698 6.67821C94.9689 5.8892 96.0468 5.44678 97.1698 5.44678C98.2928 5.44678 99.3706 5.8892 100.17 6.67821C100.965 7.46936 101.418 8.5404 101.433 9.6619C101.448 10.7834 101.023 11.8661 100.25 12.6782V12.7082Z" fill="white"/>
<path d="M1.524 17.2483V6.04829H3.572V10.4483H8.596V6.04829H10.644V17.2483H8.596V12.1923H3.572V17.2483H1.524ZM15.6295 17.4403C14.7975 17.4403 14.0775 17.259 13.4695 16.8963C12.8722 16.5336 12.4082 16.0376 12.0775 15.4083C11.7468 14.779 11.5815 14.0696 11.5815 13.2803C11.5815 12.4376 11.7522 11.707 12.0935 11.0883C12.4348 10.4696 12.9095 9.98962 13.5175 9.64829C14.1255 9.29629 14.8295 9.12029 15.6295 9.12029C16.4188 9.12029 17.1068 9.29096 17.6935 9.63229C18.2908 9.97362 18.7548 10.443 19.0855 11.0403C19.4268 11.6376 19.5975 12.3256 19.5975 13.1043C19.5975 13.243 19.5922 13.3816 19.5815 13.5203C19.5708 13.6483 19.5548 13.771 19.5335 13.8883H13.6455C13.6775 14.2616 13.7735 14.5923 13.9335 14.8803C14.1042 15.1576 14.3282 15.3763 14.6055 15.5363C14.8935 15.6856 15.2188 15.7603 15.5815 15.7603C15.9548 15.7603 16.2748 15.6803 16.5415 15.5203C16.8188 15.3603 17.0375 15.115 17.1975 14.7843H19.3895C19.2402 15.2536 19.0002 15.691 18.6695 16.0963C18.3388 16.5016 17.9175 16.827 17.4055 17.0723C16.9042 17.3176 16.3122 17.4403 15.6295 17.4403ZM13.6615 12.5283H17.4855C17.4748 11.995 17.2775 11.5736 16.8935 11.2643C16.5202 10.955 16.0775 10.8003 15.5655 10.8003C15.1282 10.8003 14.7228 10.939 14.3495 11.2163C13.9762 11.483 13.7468 11.9203 13.6615 12.5283ZM24.0893 17.4403C23.2893 17.4403 22.5906 17.2643 21.9933 16.9123C21.3959 16.5496 20.9319 16.059 20.6013 15.4403C20.2706 14.811 20.1053 14.091 20.1053 13.2803C20.1053 12.4803 20.2653 11.7656 20.5853 11.1363C20.9159 10.507 21.3799 10.0163 21.9773 9.66429C22.5746 9.30162 23.2786 9.12029 24.0893 9.12029C25.0493 9.12029 25.8599 9.36029 26.5213 9.84029C27.1933 10.3203 27.6466 11.0296 27.8813 11.9683H25.6893C25.5933 11.659 25.4066 11.3976 25.1293 11.1843C24.8626 10.9603 24.5106 10.8483 24.0733 10.8483C23.6359 10.8483 23.2786 10.9603 23.0013 11.1843C22.7239 11.4083 22.5159 11.707 22.3773 12.0803C22.2493 12.443 22.1853 12.843 22.1853 13.2803C22.1853 13.7176 22.2493 14.123 22.3773 14.4963C22.5159 14.859 22.7239 15.1523 23.0013 15.3763C23.2786 15.5896 23.6359 15.6963 24.0733 15.6963C24.4893 15.6963 24.8306 15.6056 25.0973 15.4243C25.3639 15.2323 25.5613 14.955 25.6893 14.5923H27.8813C27.7426 15.1896 27.4919 15.7016 27.1293 16.1283C26.7773 16.555 26.3399 16.8803 25.8173 17.1043C25.3053 17.3283 24.7293 17.4403 24.0893 17.4403ZM28.7444 17.2483V6.04829H30.7764V10.2403C31.0537 9.86696 31.4217 9.58962 31.8804 9.40829C32.3497 9.21629 32.819 9.12029 33.2884 9.12029C34.2057 9.12029 34.9577 9.41896 35.5444 10.0163C36.131 10.603 36.4244 11.4563 36.4244 12.5763V17.2483H34.3924V12.8483C34.3924 12.251 34.2377 11.771 33.9284 11.4083C33.6297 11.035 33.187 10.8483 32.6004 10.8483C32.0137 10.8483 31.5604 11.035 31.2404 11.4083C30.931 11.771 30.7764 12.251 30.7764 12.8483V17.2483H28.7444ZM41.2808 17.4403C40.4808 17.4403 39.7661 17.2696 39.1368 16.9283C38.5181 16.5763 38.0328 16.0856 37.6808 15.4563C37.3288 14.827 37.1528 14.1016 37.1528 13.2803C37.1528 12.4163 37.3394 11.675 37.7128 11.0563C38.0968 10.427 38.6034 9.94696 39.2328 9.61629C39.8728 9.28562 40.5768 9.12029 41.3448 9.12029C42.1448 9.12029 42.8594 9.29629 43.4888 9.64829C44.1181 9.98962 44.6141 10.4696 44.9768 11.0883C45.3501 11.707 45.5368 12.4376 45.5368 13.2803C45.5368 14.0803 45.3554 14.795 44.9928 15.4243C44.6301 16.0536 44.1288 16.5496 43.4888 16.9123C42.8594 17.2643 42.1234 17.4403 41.2808 17.4403ZM41.3128 15.6643C41.7394 15.6643 42.1074 15.5576 42.4168 15.3443C42.7368 15.1203 42.9874 14.827 43.1688 14.4643C43.3501 14.091 43.4408 13.6856 43.4408 13.2483C43.4408 12.747 43.3394 12.3203 43.1368 11.9683C42.9448 11.6163 42.6888 11.3496 42.3688 11.1683C42.0488 10.987 41.6968 10.8963 41.3128 10.8963C40.8968 10.8963 40.5288 10.9976 40.2088 11.2003C39.8994 11.403 39.6541 11.6856 39.4728 12.0483C39.3021 12.4003 39.2168 12.811 39.2168 13.2803C39.2168 13.7496 39.3074 14.1656 39.4888 14.5283C39.6808 14.891 39.9368 15.1736 40.2568 15.3763C40.5768 15.5683 40.9288 15.6643 41.3128 15.6643ZM53.4968 17.4403C52.6968 17.4403 51.9981 17.2643 51.4008 16.9123C50.8034 16.5496 50.3394 16.059 50.0088 15.4403C49.6781 14.811 49.5128 14.091 49.5128 13.2803C49.5128 12.4803 49.6728 11.7656 49.9928 11.1363C50.3234 10.507 50.7874 10.0163 51.3848 9.66429C51.9821 9.30162 52.6861 9.12029 53.4968 9.12029C54.4568 9.12029 55.2674 9.36029 55.9288 9.84029C56.6008 10.3203 57.0541 11.0296 57.2888 11.9683H55.0968C55.0008 11.659 54.8141 11.3976 54.5368 11.1843C54.2701 10.9603 53.9181 10.8483 53.4808 10.8483C53.0434 10.8483 52.6861 10.9603 52.4088 11.1843C52.1314 11.4083 51.9234 11.707 51.7848 12.0803C51.6568 12.443 51.5928 12.843 51.5928 13.2803C51.5928 13.7176 51.6568 14.123 51.7848 14.4963C51.9234 14.859 52.1314 15.1523 52.4088 15.3763C52.6861 15.5896 53.0434 15.6963 53.4808 15.6963C53.8968 15.6963 54.2381 15.6056 54.5048 15.4243C54.7714 15.2323 54.9688 14.955 55.0968 14.5923H57.2888C57.1501 15.1896 56.8994 15.7016 56.5368 16.1283C56.1848 16.555 55.7474 16.8803 55.2248 17.1043C54.7128 17.3283 54.1368 17.4403 53.4968 17.4403ZM62.0239 17.4403C61.2239 17.4403 60.5092 17.2696 59.8799 16.9283C59.2612 16.5763 58.7759 16.0856 58.4239 15.4563C58.0719 14.827 57.8959 14.1016 57.8959 13.2803C57.8959 12.4163 58.0825 11.675 58.4559 11.0563C58.8399 10.427 59.3465 9.94696 59.9759 9.61629C60.6159 9.28562 61.3199 9.12029 62.0879 9.12029C62.8879 9.12029 63.6025 9.29629 64.2319 9.64829C64.8612 9.98962 65.3572 10.4696 65.7199 11.0883C66.0932 11.707 66.2799 12.4376 66.2799 13.2803C66.2799 14.0803 66.0985 14.795 65.7359 15.4243C65.3732 16.0536 64.8719 16.5496 64.2319 16.9123C63.6025 17.2643 62.8665 17.4403 62.0239 17.4403ZM62.0559 15.6643C62.4825 15.6643 62.8505 15.5576 63.1599 15.3443C63.4799 15.1203 63.7305 14.827 63.9119 14.4643C64.0932 14.091 64.1839 13.6856 64.1839 13.2483C64.1839 12.747 64.0825 12.3203 63.8799 11.9683C63.6879 11.6163 63.4319 11.3496 63.1119 11.1683C62.7919 10.987 62.4399 10.8963 62.0559 10.8963C61.6399 10.8963 61.2719 10.9976 60.9519 11.2003C60.6425 11.403 60.3972 11.6856 60.2159 12.0483C60.0452 12.4003 59.9599 12.811 59.9599 13.2803C59.9599 13.7496 60.0505 14.1656 60.2319 14.5283C60.4239 14.891 60.6799 15.1736 60.9999 15.3763C61.3199 15.5683 61.6719 15.6643 62.0559 15.6643ZM67.1444 17.2483V9.31229H69.1764V10.2403C69.4537 9.86696 69.8217 9.58962 70.2804 9.40829C70.7497 9.21629 71.219 9.12029 71.6884 9.12029C72.6057 9.12029 73.3577 9.41896 73.9444 10.0163C74.531 10.603 74.8244 11.4563 74.8244 12.5763V17.2483H72.7924V12.8483C72.7924 12.251 72.6377 11.771 72.3284 11.4083C72.0297 11.035 71.587 10.8483 71.0004 10.8483C70.4137 10.8483 69.9604 11.035 69.6404 11.4083C69.331 11.771 69.1764 12.251 69.1764 12.8483V17.2483H67.1444Z" fill="white"/>
<path d="M112.524 17.2483V6.04829H116.764C117.927 6.04829 118.812 6.30962 119.42 6.83229C120.039 7.34429 120.348 8.02162 120.348 8.86429C120.348 9.48296 120.199 9.98962 119.9 10.3843C119.601 10.7683 119.228 11.0563 118.78 11.2483C119.153 11.387 119.495 11.595 119.804 11.8723C120.124 12.1496 120.38 12.4803 120.572 12.8643C120.764 13.2376 120.86 13.6483 120.86 14.0963C120.86 14.683 120.716 15.2163 120.428 15.6963C120.14 16.1763 119.724 16.555 119.18 16.8323C118.636 17.1096 117.969 17.2483 117.18 17.2483H112.524ZM114.572 15.5043H116.988C117.596 15.5043 118.044 15.3656 118.332 15.0883C118.631 14.811 118.78 14.411 118.78 13.8883C118.78 13.3656 118.625 12.9656 118.316 12.6883C118.007 12.411 117.553 12.2723 116.956 12.2723H114.572V15.5043ZM114.572 10.5283H116.588C117.164 10.5283 117.585 10.4163 117.852 10.1923C118.119 9.95762 118.252 9.61096 118.252 9.15229C118.252 8.71496 118.119 8.37896 117.852 8.14429C117.596 7.90962 117.164 7.79229 116.556 7.79229H114.572V10.5283ZM122.136 20.7683L123.88 16.8803L120.664 9.31229H122.952L125 14.7203L127.096 9.31229H129.256L124.296 20.7683H122.136Z" fill="white"/>
</svg>
