<svg width="24" height="25" viewBox="0 0 24 25" fill="none" xmlns="http://www.w3.org/2000/svg">
<g id="TikTok" clip-path="url(#clip0_5660_161)">
<path id="Vector" d="M16.9695 9.04527C18.4511 10.1082 20.2661 10.7335 22.2265 10.7335V6.94781C21.8555 6.94789 21.4854 6.90906 21.1225 6.83189V9.81179C19.1623 9.81179 17.3475 9.18641 15.8655 8.12361V15.8492C15.8655 19.7139 12.7436 22.8467 8.89286 22.8467C7.45605 22.8467 6.12059 22.4107 5.01123 21.6631C6.27739 22.9623 8.04314 23.7683 9.99663 23.7683C13.8476 23.7683 16.9696 20.6356 16.9696 16.7707V9.04527H16.9695ZM18.3314 5.22593C17.5742 4.39576 17.077 3.32291 16.9695 2.13683V1.6499H15.9233C16.1866 3.15741 17.0848 4.44534 18.3314 5.22593ZM7.44684 18.6974C7.02379 18.1408 6.79517 17.4598 6.7962 16.7596C6.7962 14.992 8.22411 13.5589 9.98576 13.5589C10.3141 13.5588 10.6404 13.6092 10.9533 13.7089V9.83852C10.5877 9.78823 10.2186 9.76688 9.84976 9.77471V12.7872C9.53665 12.6876 9.21014 12.637 8.88175 12.6373C7.1201 12.6373 5.69227 14.0703 5.69227 15.8381C5.69227 17.0881 6.40599 18.1703 7.44684 18.6974Z" fill="white"/>
<path id="Vector_2" d="M15.8654 8.12353C17.3474 9.18634 19.1622 9.81172 21.1224 9.81172V6.83181C20.0282 6.59791 19.0596 6.02409 18.3313 5.22593C17.0847 4.44526 16.1865 3.15733 15.9232 1.6499H13.1751V16.7705C13.1689 18.5333 11.7434 19.9606 9.98556 19.9606C8.94967 19.9606 8.02939 19.4651 7.44655 18.6974C6.40578 18.1703 5.69206 17.088 5.69206 15.8382C5.69206 14.0705 7.11989 12.6374 8.88155 12.6374C9.21907 12.6374 9.54439 12.6901 9.84955 12.7873V9.77479C6.06644 9.85323 3.02391 12.9554 3.02391 16.7706C3.02391 18.6751 3.78157 20.4017 5.01126 21.6632C6.12062 22.4107 7.45608 22.8467 8.89289 22.8467C12.7437 22.8467 15.8655 19.7138 15.8655 15.8492V8.12353H15.8654Z" fill="white"/>
<path id="Vector_3" d="M21.1224 6.83176V6.02602C20.1358 6.02752 19.1685 5.75021 18.3314 5.22581C19.0724 6.04001 20.0482 6.60142 21.1224 6.83176ZM15.9232 1.64986C15.8981 1.50579 15.8788 1.36077 15.8654 1.2152V0.728271H12.0711V15.8491C12.065 17.6116 10.6396 19.0389 8.88157 19.0389C8.36544 19.0389 7.87813 18.9159 7.44657 18.6975C8.02941 19.465 8.94969 19.9605 9.98558 19.9605C11.7433 19.9605 13.169 18.5333 13.1751 16.7706V1.64986H15.9232ZM9.84973 9.77474V8.91697C9.53268 8.87348 9.21303 8.85166 8.89299 8.85181C5.04184 8.85173 1.92 11.9846 1.92 15.8491C1.92 18.2718 3.14694 20.407 5.01136 21.663C3.78167 20.4015 3.02401 18.6749 3.02401 16.7705C3.02401 12.9553 6.06647 9.85318 9.84973 9.77474Z" fill="white"/>
</g>
<defs>
<clipPath id="clip0_5660_161">
<rect width="24" height="24" fill="white" transform="translate(0 0.248291)"/>
</clipPath>
</defs>
</svg>
